<?xml version="1.0" encoding="UTF-8" standalone="no"?>
<!-- Created with Inkscape (http://www.inkscape.org/) -->

<svg
   xmlns:dc="http://purl.org/dc/elements/1.1/"
   xmlns:cc="http://creativecommons.org/ns#"
   xmlns:rdf="http://www.w3.org/1999/02/22-rdf-syntax-ns#"
   xmlns:svg="http://www.w3.org/2000/svg"
   xmlns="http://www.w3.org/2000/svg"
   xmlns:sodipodi="http://sodipodi.sourceforge.net/DTD/sodipodi-0.dtd"
   xmlns:inkscape="http://www.inkscape.org/namespaces/inkscape"
   version="1.1"
   id="svg2"
   xml:space="preserve"
   width="1209.1077"
   height="408.56125"
   viewBox="0 0 1209.1077 408.56125"
   sodipodi:docname="cohr_synth_Reqs.svg"
   inkscape:version="0.92.4 (5da689c313, 2019-01-14)"><metadata
     id="metadata8"><rdf:RDF><cc:Work
         rdf:about=""><dc:format>image/svg+xml</dc:format><dc:type
           rdf:resource="http://purl.org/dc/dcmitype/StillImage" /><dc:title></dc:title></cc:Work></rdf:RDF></metadata><defs
     id="defs6"><clipPath
       clipPathUnits="userSpaceOnUse"
       id="clipPath18"><path
         d="M 0,1.8311e-4 H 1080 V 612.00018 H 0 Z"
         id="path16"
         inkscape:connector-curvature="0"
         style="clip-rule:evenodd" /></clipPath><clipPath
       clipPathUnits="userSpaceOnUse"
       id="clipPath34"><path
         d="M 139.92,223.2 H 996.6 V 418.68 H 139.92 Z"
         id="path32"
         inkscape:connector-curvature="0"
         style="clip-rule:evenodd" /></clipPath><clipPath
       clipPathUnits="userSpaceOnUse"
       id="clipPath58"><path
         d="M 73.08,143.64 H 1006.8 V 468.48 H 73.08 Z"
         id="path56"
         inkscape:connector-curvature="0"
         style="clip-rule:evenodd" /></clipPath><clipPath
       clipPathUnits="userSpaceOnUse"
       id="clipPath70"><path
         d="M 73.08,143.64 H 1006.8 V 468.48 H 73.08 Z"
         id="path68"
         inkscape:connector-curvature="0"
         style="clip-rule:evenodd" /></clipPath><clipPath
       clipPathUnits="userSpaceOnUse"
       id="clipPath82"><path
         d="M 73.08,143.64 H 1006.8 V 468.48 H 73.08 Z"
         id="path80"
         inkscape:connector-curvature="0"
         style="clip-rule:evenodd" /></clipPath><clipPath
       clipPathUnits="userSpaceOnUse"
       id="clipPath94"><path
         d="M 73.08,143.64 H 1006.8 V 468.48 H 73.08 Z"
         id="path92"
         inkscape:connector-curvature="0"
         style="clip-rule:evenodd" /></clipPath><clipPath
       clipPathUnits="userSpaceOnUse"
       id="clipPath106"><path
         d="M 73.08,143.64 H 1006.8 V 468.48 H 73.08 Z"
         id="path104"
         inkscape:connector-curvature="0"
         style="clip-rule:evenodd" /></clipPath><clipPath
       clipPathUnits="userSpaceOnUse"
       id="clipPath118"><path
         d="M 73.08,143.64 H 1006.8 V 468.48 H 73.08 Z"
         id="path116"
         inkscape:connector-curvature="0"
         style="clip-rule:evenodd" /></clipPath><clipPath
       clipPathUnits="userSpaceOnUse"
       id="clipPath130"><path
         d="M 73.08,143.64 H 1006.8 V 468.48 H 73.08 Z"
         id="path128"
         inkscape:connector-curvature="0"
         style="clip-rule:evenodd" /></clipPath><clipPath
       clipPathUnits="userSpaceOnUse"
       id="clipPath142"><path
         d="M 73.08,143.64 H 1006.8 V 468.48 H 73.08 Z"
         id="path140"
         inkscape:connector-curvature="0"
         style="clip-rule:evenodd" /></clipPath><clipPath
       clipPathUnits="userSpaceOnUse"
       id="clipPath154"><path
         d="M 73.08,143.64 H 1006.8 V 468.48 H 73.08 Z"
         id="path152"
         inkscape:connector-curvature="0"
         style="clip-rule:evenodd" /></clipPath><clipPath
       clipPathUnits="userSpaceOnUse"
       id="clipPath166"><path
         d="M 73.08,143.64 H 1006.8 V 468.48 H 73.08 Z"
         id="path164"
         inkscape:connector-curvature="0"
         style="clip-rule:evenodd" /></clipPath><clipPath
       clipPathUnits="userSpaceOnUse"
       id="clipPath178"><path
         d="M 73.08,143.64 H 1006.8 V 468.48 H 73.08 Z"
         id="path176"
         inkscape:connector-curvature="0"
         style="clip-rule:evenodd" /></clipPath><clipPath
       clipPathUnits="userSpaceOnUse"
       id="clipPath190"><path
         d="M 73.08,143.64 H 1006.8 V 468.48 H 73.08 Z"
         id="path188"
         inkscape:connector-curvature="0"
         style="clip-rule:evenodd" /></clipPath><clipPath
       clipPathUnits="userSpaceOnUse"
       id="clipPath202"><path
         d="M 73.08,143.64 H 1006.8 V 468.48 H 73.08 Z"
         id="path200"
         inkscape:connector-curvature="0"
         style="clip-rule:evenodd" /></clipPath><clipPath
       clipPathUnits="userSpaceOnUse"
       id="clipPath214"><path
         d="M 73.08,143.64 H 1006.8 V 468.48 H 73.08 Z"
         id="path212"
         inkscape:connector-curvature="0"
         style="clip-rule:evenodd" /></clipPath><clipPath
       clipPathUnits="userSpaceOnUse"
       id="clipPath226"><path
         d="M 73.08,143.64 H 1006.8 V 468.48 H 73.08 Z"
         id="path224"
         inkscape:connector-curvature="0"
         style="clip-rule:evenodd" /></clipPath><clipPath
       clipPathUnits="userSpaceOnUse"
       id="clipPath238"><path
         d="M 73.08,143.64 H 1006.8 V 468.48 H 73.08 Z"
         id="path236"
         inkscape:connector-curvature="0"
         style="clip-rule:evenodd" /></clipPath><clipPath
       clipPathUnits="userSpaceOnUse"
       id="clipPath250"><path
         d="M 73.08,143.64 H 1006.8 V 468.48 H 73.08 Z"
         id="path248"
         inkscape:connector-curvature="0"
         style="clip-rule:evenodd" /></clipPath><clipPath
       clipPathUnits="userSpaceOnUse"
       id="clipPath262"><path
         d="M 73.08,143.64 H 1006.8 V 468.48 H 73.08 Z"
         id="path260"
         inkscape:connector-curvature="0"
         style="clip-rule:evenodd" /></clipPath><clipPath
       clipPathUnits="userSpaceOnUse"
       id="clipPath274"><path
         d="M 73.08,143.64 H 1006.8 V 468.48 H 73.08 Z"
         id="path272"
         inkscape:connector-curvature="0"
         style="clip-rule:evenodd" /></clipPath><clipPath
       clipPathUnits="userSpaceOnUse"
       id="clipPath286"><path
         d="M 73.08,143.64 H 1006.8 V 468.48 H 73.08 Z"
         id="path284"
         inkscape:connector-curvature="0"
         style="clip-rule:evenodd" /></clipPath><clipPath
       clipPathUnits="userSpaceOnUse"
       id="clipPath298"><path
         d="M 73.08,143.64 H 1006.8 V 468.48 H 73.08 Z"
         id="path296"
         inkscape:connector-curvature="0"
         style="clip-rule:evenodd" /></clipPath><clipPath
       clipPathUnits="userSpaceOnUse"
       id="clipPath310"><path
         d="M 73.08,143.64 H 1006.8 V 468.48 H 73.08 Z"
         id="path308"
         inkscape:connector-curvature="0"
         style="clip-rule:evenodd" /></clipPath><clipPath
       clipPathUnits="userSpaceOnUse"
       id="clipPath322"><path
         d="M 73.08,143.64 H 1006.8 V 468.48 H 73.08 Z"
         id="path320"
         inkscape:connector-curvature="0"
         style="clip-rule:evenodd" /></clipPath><clipPath
       clipPathUnits="userSpaceOnUse"
       id="clipPath334"><path
         d="M 73.08,143.64 H 1006.8 V 468.48 H 73.08 Z"
         id="path332"
         inkscape:connector-curvature="0"
         style="clip-rule:evenodd" /></clipPath><clipPath
       clipPathUnits="userSpaceOnUse"
       id="clipPath346"><path
         d="M 73.08,143.64 H 1006.8 V 468.48 H 73.08 Z"
         id="path344"
         inkscape:connector-curvature="0"
         style="clip-rule:evenodd" /></clipPath><clipPath
       clipPathUnits="userSpaceOnUse"
       id="clipPath358"><path
         d="M 73.08,143.64 H 1006.8 V 468.48 H 73.08 Z"
         id="path356"
         inkscape:connector-curvature="0"
         style="clip-rule:evenodd" /></clipPath><clipPath
       clipPathUnits="userSpaceOnUse"
       id="clipPath370"><path
         d="M 73.08,143.64 H 1006.8 V 468.48 H 73.08 Z"
         id="path368"
         inkscape:connector-curvature="0"
         style="clip-rule:evenodd" /></clipPath><clipPath
       clipPathUnits="userSpaceOnUse"
       id="clipPath382"><path
         d="M 73.08,143.64 H 1006.8 V 468.48 H 73.08 Z"
         id="path380"
         inkscape:connector-curvature="0"
         style="clip-rule:evenodd" /></clipPath><clipPath
       clipPathUnits="userSpaceOnUse"
       id="clipPath394"><path
         d="M 73.08,143.64 H 1006.8 V 468.48 H 73.08 Z"
         id="path392"
         inkscape:connector-curvature="0"
         style="clip-rule:evenodd" /></clipPath><clipPath
       clipPathUnits="userSpaceOnUse"
       id="clipPath406"><path
         d="M 73.08,143.64 H 1006.8 V 468.48 H 73.08 Z"
         id="path404"
         inkscape:connector-curvature="0"
         style="clip-rule:evenodd" /></clipPath><clipPath
       clipPathUnits="userSpaceOnUse"
       id="clipPath418"><path
         d="M 73.08,143.64 H 1006.8 V 468.48 H 73.08 Z"
         id="path416"
         inkscape:connector-curvature="0"
         style="clip-rule:evenodd" /></clipPath><clipPath
       clipPathUnits="userSpaceOnUse"
       id="clipPath430"><path
         d="M 73.08,143.64 H 1006.8 V 468.48 H 73.08 Z"
         id="path428"
         inkscape:connector-curvature="0"
         style="clip-rule:evenodd" /></clipPath><clipPath
       clipPathUnits="userSpaceOnUse"
       id="clipPath442"><path
         d="M 73.08,143.64 H 1006.8 V 468.48 H 73.08 Z"
         id="path440"
         inkscape:connector-curvature="0"
         style="clip-rule:evenodd" /></clipPath><clipPath
       clipPathUnits="userSpaceOnUse"
       id="clipPath454"><path
         d="M 73.08,143.64 H 1006.8 V 468.48 H 73.08 Z"
         id="path452"
         inkscape:connector-curvature="0"
         style="clip-rule:evenodd" /></clipPath><clipPath
       clipPathUnits="userSpaceOnUse"
       id="clipPath466"><path
         d="M 73.08,143.64 H 1006.8 V 468.48 H 73.08 Z"
         id="path464"
         inkscape:connector-curvature="0"
         style="clip-rule:evenodd" /></clipPath><clipPath
       clipPathUnits="userSpaceOnUse"
       id="clipPath478"><path
         d="M 73.08,143.64 H 1006.8 V 468.48 H 73.08 Z"
         id="path476"
         inkscape:connector-curvature="0"
         style="clip-rule:evenodd" /></clipPath><clipPath
       clipPathUnits="userSpaceOnUse"
       id="clipPath490"><path
         d="M 73.08,143.64 H 1006.8 V 468.48 H 73.08 Z"
         id="path488"
         inkscape:connector-curvature="0"
         style="clip-rule:evenodd" /></clipPath><clipPath
       clipPathUnits="userSpaceOnUse"
       id="clipPath502"><path
         d="M 73.08,143.64 H 1006.8 V 468.48 H 73.08 Z"
         id="path500"
         inkscape:connector-curvature="0"
         style="clip-rule:evenodd" /></clipPath><clipPath
       clipPathUnits="userSpaceOnUse"
       id="clipPath514"><path
         d="M 73.08,143.64 H 1006.8 V 468.48 H 73.08 Z"
         id="path512"
         inkscape:connector-curvature="0"
         style="clip-rule:evenodd" /></clipPath><clipPath
       clipPathUnits="userSpaceOnUse"
       id="clipPath526"><path
         d="M 73.08,143.64 H 1006.8 V 468.48 H 73.08 Z"
         id="path524"
         inkscape:connector-curvature="0"
         style="clip-rule:evenodd" /></clipPath><clipPath
       clipPathUnits="userSpaceOnUse"
       id="clipPath538"><path
         d="M 73.08,143.64 H 1006.8 V 468.48 H 73.08 Z"
         id="path536"
         inkscape:connector-curvature="0"
         style="clip-rule:evenodd" /></clipPath><clipPath
       clipPathUnits="userSpaceOnUse"
       id="clipPath554"><path
         d="M 73.08,143.64 H 1006.8 V 468.48 H 73.08 Z"
         id="path552"
         inkscape:connector-curvature="0"
         style="clip-rule:evenodd" /></clipPath><clipPath
       clipPathUnits="userSpaceOnUse"
       id="clipPath570"><path
         d="M 73.08,143.64 H 1006.8 V 468.48 H 73.08 Z"
         id="path568"
         inkscape:connector-curvature="0"
         style="clip-rule:evenodd" /></clipPath><clipPath
       clipPathUnits="userSpaceOnUse"
       id="clipPath586"><path
         d="M 73.08,143.64 H 1006.8 V 468.48 H 73.08 Z"
         id="path584"
         inkscape:connector-curvature="0"
         style="clip-rule:evenodd" /></clipPath></defs><sodipodi:namedview
     pagecolor="#ffffff"
     bordercolor="#666666"
     borderopacity="1"
     objecttolerance="10"
     gridtolerance="10"
     guidetolerance="10"
     inkscape:pageopacity="0"
     inkscape:pageshadow="2"
     inkscape:window-width="1920"
     inkscape:window-height="1017"
     id="namedview4"
     showgrid="false"
     showborder="false"
     fit-margin-top="0"
     fit-margin-left="0"
     fit-margin-right="0"
     fit-margin-bottom="0"
     inkscape:zoom="0.68157237"
     inkscape:cx="611.20061"
     inkscape:cy="303.96413"
     inkscape:window-x="-8"
     inkscape:window-y="-8"
     inkscape:window-maximized="1"
     inkscape:current-layer="g10" /><g
     id="g10"
     inkscape:groupmode="layer"
     inkscape:label="cohr_synth_Reqs"
     transform="matrix(1.3333333,0,0,-1.3333333,-119.21225,606.80124)"><path
       d="M 140.04,251.64 H 995.88 M 140.04,279.48 H 995.88 M 140.04,307.32 H 995.88 M 140.04,335.16 H 995.88 M 140.04,363 h 855.84 m -855.84,27.84 h 855.84 m -855.84,27.84 h 855.84"
       style="fill:none;stroke:#d9d9d9;stroke-width:0.72000003;stroke-linecap:butt;stroke-linejoin:round;stroke-miterlimit:10;stroke-dasharray:none;stroke-opacity:1"
       id="path24"
       inkscape:connector-curvature="0" /><path
       d="m 150.66,279.54 h 14.28 v -55.68 h -14.28 z m 35.64,0 h 14.28 V 223.86 H 186.3 Z m 35.76,0 h 14.16 v -55.68 h -14.16 z m 35.64,0 h 14.28 V 223.86 H 257.7 Z m 35.64,0 h 14.28 v -55.68 h -14.28 z m 35.64,0 h 14.28 v -55.68 h -14.28 z m 35.64,0 h 14.28 v -55.68 h -14.28 z m 35.76,0 h 14.16 v -55.68 h -14.16 z m 35.64,0 h 14.28 v -55.68 h -14.28 z m 35.64,0 h 14.28 v -55.68 h -14.28 z m 35.64,0 h 14.28 V 223.86 H 507.3 Z m 35.64,0 h 14.28 v -55.68 h -14.28 z m 35.64,0 h 14.28 v -55.68 h -14.28 z m 35.76,0 h 14.16 v -55.68 h -14.16 z m 35.64,0 h 14.28 v -55.68 h -14.28 z m 35.64,0 h 14.28 v -55.68 h -14.28 z m 35.64,0 h 14.28 v -55.68 h -14.28 z m 35.64,0 h 14.28 V 223.86 H 756.9 Z m 35.76,0 h 14.16 v -55.68 h -14.16 z m 35.64,0 h 14.28 V 223.86 H 828.3 Z m 35.64,0 h 14.28 v -55.68 h -14.28 z m 35.64,0 h 14.28 v -55.68 h -14.28 z m 35.64,0 h 14.28 v -55.68 h -14.28 z m 35.64,0 h 14.28 v -55.68 h -14.28 z"
       style="fill:#0070c0;fill-opacity:1;fill-rule:nonzero;stroke:none"
       id="path26"
       inkscape:connector-curvature="0" /><g
       id="g28"><g
         id="g30"
         clip-path="url(#clipPath34)"><path
           d="m 150.66,279.54 h 14.28 v -55.68 h -14.28 z m 35.64,0 h 14.28 V 223.86 H 186.3 Z m 35.76,0 h 14.16 v -55.68 h -14.16 z m 35.64,0 h 14.28 V 223.86 H 257.7 Z m 35.64,0 h 14.28 v -55.68 h -14.28 z m 35.64,0 h 14.28 v -55.68 h -14.28 z m 35.64,0 h 14.28 v -55.68 h -14.28 z m 35.76,0 h 14.16 v -55.68 h -14.16 z m 35.64,0 h 14.28 v -55.68 h -14.28 z m 35.64,0 h 14.28 v -55.68 h -14.28 z m 35.64,0 h 14.28 V 223.86 H 507.3 Z m 35.64,0 h 14.28 v -55.68 h -14.28 z m 35.64,0 h 14.28 v -55.68 h -14.28 z m 35.76,0 h 14.16 v -55.68 h -14.16 z m 35.64,0 h 14.28 v -55.68 h -14.28 z m 35.64,0 h 14.28 v -55.68 h -14.28 z m 35.64,0 h 14.28 v -55.68 h -14.28 z m 35.64,0 h 14.28 V 223.86 H 756.9 Z m 35.76,0 h 14.16 v -55.68 h -14.16 z m 35.64,0 h 14.28 V 223.86 H 828.3 Z m 35.64,0 h 14.28 v -55.68 h -14.28 z m 35.64,0 h 14.28 v -55.68 h -14.28 z m 35.64,0 h 14.28 v -55.68 h -14.28 z m 35.64,0 h 14.28 v -55.68 h -14.28 z"
           style="fill:none;stroke:#0070c0;stroke-width:2.03999996;stroke-linecap:butt;stroke-linejoin:round;stroke-miterlimit:10;stroke-dasharray:none;stroke-opacity:1"
           id="path36"
           inkscape:connector-curvature="0" /></g></g><path
       d="m 150.66,317.82 h 14.28 v -38.28 h -14.28 z m 35.64,-6.84 h 14.28 V 279.54 H 186.3 Z m 35.76,-16.56 h 14.16 v -14.88 h -14.16 z m 35.64,39.96 h 14.28 V 279.54 H 257.7 Z m 35.64,-26.28 h 14.28 v -28.56 h -14.28 z m 35.64,0 h 14.28 v -28.56 h -14.28 z m 35.64,-21.6 h 14.28 v -6.96 h -14.28 z m 35.76,-3.48 h 14.16 v -3.48 h -14.16 z m 35.64,0 h 14.28 v -3.48 h -14.28 z m 35.64,49.32 h 14.28 v -52.8 h -14.28 z m 35.64,-22.08 h 14.28 V 279.54 H 507.3 Z m 35.64,0 h 14.28 v -30.72 h -14.28 z m 35.64,24.24 h 14.28 v -54.96 h -14.28 z m 35.76,-0.12 h 14.16 v -54.84 h -14.16 z m 35.64,0 h 14.28 v -54.84 h -14.28 z m 35.64,0 h 14.28 v -54.84 h -14.28 z m 35.64,-0.12 h 14.28 v -54.72 h -14.28 z m 35.64,0 h 14.28 V 279.54 H 756.9 Z m 35.76,-9.12 h 14.16 v -45.6 h -14.16 z m 35.64,-0.24 h 14.28 V 279.54 H 828.3 Z m 35.64,0 h 14.28 v -45.36 h -14.28 z m 35.64,3.36 h 14.28 v -48.72 h -14.28 z m 35.64,-0.6 h 14.28 v -48.12 h -14.28 z m 35.64,0 h 14.28 v -48.12 h -14.28 z"
       style="fill:#000000;fill-opacity:1;fill-rule:nonzero;stroke:none"
       id="path38"
       inkscape:connector-curvature="0" /><path
       d="m 150.66,317.82 h 14.28 v -38.28 h -14.28 z m 35.64,-6.84 h 14.28 V 279.54 H 186.3 Z m 35.76,-16.56 h 14.16 v -14.88 h -14.16 z m 35.64,39.96 h 14.28 V 279.54 H 257.7 Z m 35.64,-26.28 h 14.28 v -28.56 h -14.28 z m 35.64,0 h 14.28 v -28.56 h -14.28 z m 35.64,-21.6 h 14.28 v -6.96 h -14.28 z m 35.76,-3.48 h 14.16 v -3.48 h -14.16 z m 35.64,0 h 14.28 v -3.48 h -14.28 z m 35.64,49.32 h 14.28 v -52.8 h -14.28 z m 35.64,-22.08 h 14.28 V 279.54 H 507.3 Z m 35.64,0 h 14.28 v -30.72 h -14.28 z m 35.64,24.24 h 14.28 v -54.96 h -14.28 z m 35.76,-0.12 h 14.16 v -54.84 h -14.16 z m 35.64,0 h 14.28 v -54.84 h -14.28 z m 35.64,0 h 14.28 v -54.84 h -14.28 z m 35.64,-0.12 h 14.28 v -54.72 h -14.28 z m 35.64,0 h 14.28 V 279.54 H 756.9 Z m 35.76,-9.12 h 14.16 v -45.6 h -14.16 z m 35.64,-0.24 h 14.28 V 279.54 H 828.3 Z m 35.64,0 h 14.28 v -45.36 h -14.28 z m 35.64,3.36 h 14.28 v -48.72 h -14.28 z m 35.64,-0.6 h 14.28 v -48.12 h -14.28 z m 35.64,0 h 14.28 v -48.12 h -14.28 z"
       style="fill:none;stroke:#000000;stroke-width:2.03999996;stroke-linecap:butt;stroke-linejoin:round;stroke-miterlimit:10;stroke-dasharray:none;stroke-opacity:1"
       id="path40"
       inkscape:connector-curvature="0" /><path
       d="m 150.66,337.98 h 14.28 v -20.16 h -14.28 z m 35.64,-10.44 h 14.28 V 310.98 H 186.3 Z m 35.76,-19.08 h 14.16 v -14.04 h -14.16 z m 35.64,77.52 h 14.28 v -51.6 H 257.7 Z m 35.64,-49.32 h 14.28 V 308.1 h -14.28 z m 35.64,0 h 14.28 V 308.1 h -14.28 z m 35.64,-43.8 h 14.28 v -6.36 h -14.28 z m 35.76,-6.72 h 14.16 v -3.12 h -14.16 z m 35.64,0 h 14.28 v -3.12 h -14.28 z m 35.64,93.24 h 14.28 v -47.04 h -14.28 z m 35.64,-38.64 h 14.28 V 310.26 H 507.3 Z m 35.64,0 h 14.28 v -30.48 h -14.28 z m 35.64,30.24 h 14.28 V 334.5 h -14.28 z m 35.76,18.12 h 14.16 v -54.72 h -14.16 z m 35.64,0 h 14.28 v -54.72 h -14.28 z m 35.64,-36.48 h 14.28 v -18.24 h -14.28 z m 35.64,36.24 h 14.28 v -54.6 h -14.28 z m 35.64,0.12 h 14.28 V 334.26 H 756.9 Z m 35.76,-45.84 h 14.16 v -18 h -14.16 z m 35.64,8.16 h 14.28 V 324.9 H 828.3 Z m 35.64,9.12 h 14.28 V 324.9 h -14.28 z m 35.64,5.52 h 14.28 v -37.68 h -14.28 z m 35.64,2.88 h 14.28 v -41.16 h -14.28 z m 35.64,2.52 h 14.28 v -43.68 h -14.28 z"
       style="fill:#ff0000;fill-opacity:1;fill-rule:nonzero;stroke:none"
       id="path42"
       inkscape:connector-curvature="0" /><path
       d="m 150.66,337.98 h 14.28 v -20.16 h -14.28 z m 35.64,-10.44 h 14.28 V 310.98 H 186.3 Z m 35.76,-19.08 h 14.16 v -14.04 h -14.16 z m 35.64,77.52 h 14.28 v -51.6 H 257.7 Z m 35.64,-49.32 h 14.28 V 308.1 h -14.28 z m 35.64,0 h 14.28 V 308.1 h -14.28 z m 35.64,-43.8 h 14.28 v -6.36 h -14.28 z m 35.76,-6.72 h 14.16 v -3.12 h -14.16 z m 35.64,0 h 14.28 v -3.12 h -14.28 z m 35.64,93.24 h 14.28 v -47.04 h -14.28 z m 35.64,-38.64 h 14.28 V 310.26 H 507.3 Z m 35.64,0 h 14.28 v -30.48 h -14.28 z m 35.64,30.24 h 14.28 V 334.5 h -14.28 z m 35.76,18.12 h 14.16 v -54.72 h -14.16 z m 35.64,0 h 14.28 v -54.72 h -14.28 z m 35.64,-36.48 h 14.28 v -18.24 h -14.28 z m 35.64,36.24 h 14.28 v -54.6 h -14.28 z m 35.64,0.12 h 14.28 V 334.26 H 756.9 Z m 35.76,-45.84 h 14.16 v -18 h -14.16 z m 35.64,8.16 h 14.28 V 324.9 H 828.3 Z m 35.64,9.12 h 14.28 V 324.9 h -14.28 z m 35.64,5.52 h 14.28 v -37.68 h -14.28 z m 35.64,2.88 h 14.28 v -41.16 h -14.28 z m 35.64,2.52 h 14.28 v -43.68 h -14.28 z"
       style="fill:none;stroke:#ff0000;stroke-width:2.03999996;stroke-linecap:butt;stroke-linejoin:round;stroke-miterlimit:10;stroke-dasharray:none;stroke-opacity:1"
       id="path44"
       inkscape:connector-curvature="0" /><path
       d="M 140.04,223.92 H 995.88"
       style="fill:none;stroke:#d9d9d9;stroke-width:0.72000003;stroke-linecap:butt;stroke-linejoin:round;stroke-miterlimit:10;stroke-dasharray:none;stroke-opacity:1"
       id="path46"
       inkscape:connector-curvature="0" /><path
       d="m 140.04,223.92 v -48.6 m 106.92,48.6 v -48.6 M 354,223.92 v -48.6 m 106.92,48.6 v -48.6 m 107.04,48.6 v -48.6 m 106.92,48.6 v -48.6 m 107.04,48.6 v -48.6 m 106.92,48.6 v -48.6 m 107.04,48.6 v -48.6"
       style="fill:none;stroke:#d9d9d9;stroke-width:0.72000003;stroke-linecap:butt;stroke-linejoin:round;stroke-miterlimit:10;stroke-dasharray:none;stroke-opacity:1"
       id="path48"
       inkscape:connector-curvature="0" /><path
       d="m 140.04,175.32 v -26.64 m 106.92,26.64 V 148.68 M 354,175.32 v -26.64 m 106.92,26.64 v -26.64 m 107.04,26.64 v -26.64 m 106.92,26.64 v -26.64 m 107.04,26.64 v -26.64 m 106.92,26.64 v -26.64 m 107.04,26.64 v -26.64"
       style="fill:none;stroke:#d9d9d9;stroke-width:0.72000003;stroke-linecap:butt;stroke-linejoin:round;stroke-miterlimit:10;stroke-dasharray:none;stroke-opacity:1"
       id="path50"
       inkscape:connector-curvature="0" /><g
       id="g52"><g
         id="g54"
         clip-path="url(#clipPath58)"><text
           transform="matrix(1,0,0,-1,119.93,219.79)"
           style="font-variant:normal;font-weight:bold;font-size:14.03999996px;font-family:Calibri;-inkscape-font-specification:Calibri-Bold;writing-mode:lr-tb;fill:#000000;fill-opacity:1;fill-rule:nonzero;stroke:none"
           id="text62"><tspan
             x="0"
             y="0"
             id="tspan60">0</tspan></text>
</g></g><g
       id="g64"><g
         id="g66"
         clip-path="url(#clipPath70)"><text
           transform="matrix(1,0,0,-1,105.72,247.63)"
           style="font-variant:normal;font-weight:bold;font-size:14.03999996px;font-family:Calibri;-inkscape-font-specification:Calibri-Bold;writing-mode:lr-tb;fill:#000000;fill-opacity:1;fill-rule:nonzero;stroke:none"
           id="text74"><tspan
             x="0 7.0799799 14.15996"
             y="0"
             sodipodi:role="line"
             id="tspan72">100</tspan></text>
</g></g><g
       id="g76"><g
         id="g78"
         clip-path="url(#clipPath82)"><text
           transform="matrix(1,0,0,-1,105.72,275.45)"
           style="font-variant:normal;font-weight:bold;font-size:14.03999996px;font-family:Calibri;-inkscape-font-specification:Calibri-Bold;writing-mode:lr-tb;fill:#000000;fill-opacity:1;fill-rule:nonzero;stroke:none"
           id="text86"><tspan
             x="0 7.0799799 14.15996"
             y="0"
             sodipodi:role="line"
             id="tspan84">200</tspan></text>
</g></g><g
       id="g88"><g
         id="g90"
         clip-path="url(#clipPath94)"><text
           transform="matrix(1,0,0,-1,105.72,303.29)"
           style="font-variant:normal;font-weight:bold;font-size:14.03999996px;font-family:Calibri;-inkscape-font-specification:Calibri-Bold;writing-mode:lr-tb;fill:#000000;fill-opacity:1;fill-rule:nonzero;stroke:none"
           id="text98"><tspan
             x="0 7.0799799 14.15996"
             y="0"
             sodipodi:role="line"
             id="tspan96">300</tspan></text>
</g></g><g
       id="g100"><g
         id="g102"
         clip-path="url(#clipPath106)"><text
           transform="matrix(1,0,0,-1,105.72,331.13)"
           style="font-variant:normal;font-weight:bold;font-size:14.03999996px;font-family:Calibri;-inkscape-font-specification:Calibri-Bold;writing-mode:lr-tb;fill:#000000;fill-opacity:1;fill-rule:nonzero;stroke:none"
           id="text110"><tspan
             x="0 7.0799799 14.15996"
             y="0"
             sodipodi:role="line"
             id="tspan108">400</tspan></text>
</g></g><g
       id="g112"><g
         id="g114"
         clip-path="url(#clipPath118)"><text
           transform="matrix(1,0,0,-1,105.72,358.94)"
           style="font-variant:normal;font-weight:bold;font-size:14.03999996px;font-family:Calibri;-inkscape-font-specification:Calibri-Bold;writing-mode:lr-tb;fill:#000000;fill-opacity:1;fill-rule:nonzero;stroke:none"
           id="text122"><tspan
             x="0 7.0799799 14.15996"
             y="0"
             sodipodi:role="line"
             id="tspan120">500</tspan></text>
</g></g><g
       id="g124"><g
         id="g126"
         clip-path="url(#clipPath130)"><text
           transform="matrix(1,0,0,-1,105.72,386.78)"
           style="font-variant:normal;font-weight:bold;font-size:14.03999996px;font-family:Calibri;-inkscape-font-specification:Calibri-Bold;writing-mode:lr-tb;fill:#000000;fill-opacity:1;fill-rule:nonzero;stroke:none"
           id="text134"><tspan
             x="0 7.0799799 14.15996"
             y="0"
             sodipodi:role="line"
             id="tspan132">600</tspan></text>
</g></g><g
       id="g136"><g
         id="g138"
         clip-path="url(#clipPath142)"><text
           transform="matrix(1,0,0,-1,105.72,414.62)"
           style="font-variant:normal;font-weight:bold;font-size:14.03999996px;font-family:Calibri;-inkscape-font-specification:Calibri-Bold;writing-mode:lr-tb;fill:#000000;fill-opacity:1;fill-rule:nonzero;stroke:none"
           id="text146"><tspan
             x="0 7.0799799 14.15996"
             y="0"
             sodipodi:role="line"
             id="tspan144">700</tspan></text>
</g></g><g
       id="g148"><g
         id="g150"
         clip-path="url(#clipPath154)"><text
           transform="matrix(-4.4e-8,1,1,4.4e-8,162.62,192.31)"
           style="font-variant:normal;font-weight:bold;font-size:14.03999996px;font-family:Calibri;-inkscape-font-specification:Calibri-Bold;writing-mode:lr-tb;fill:#000000;fill-opacity:1;fill-rule:nonzero;stroke:none"
           id="text158"><tspan
             x="0 12.27096 18.869761"
             y="0"
             sodipodi:role="line"
             id="tspan156">MSI</tspan></text>
</g></g><g
       id="g160"><g
         id="g162"
         clip-path="url(#clipPath166)"><text
           transform="matrix(-4.4e-8,1,1,4.4e-8,198.29,185.5)"
           style="font-variant:normal;font-weight:bold;font-size:14.03999996px;font-family:Calibri;-inkscape-font-specification:Calibri-Bold;writing-mode:lr-tb;fill:#000000;fill-opacity:1;fill-rule:nonzero;stroke:none"
           id="text170"><tspan
             x="0 12.27096 19.08036 25.721279"
             y="0"
             sodipodi:role="line"
             id="tspan168">MESI</tspan></text>
</g></g><g
       id="g172"><g
         id="g174"
         clip-path="url(#clipPath178)"><text
           transform="matrix(-4.4e-8,1,1,4.4e-8,233.95,176.02)"
           style="font-variant:normal;font-weight:bold;font-size:14.03999996px;font-family:Calibri;-inkscape-font-specification:Calibri-Bold;writing-mode:lr-tb;fill:#000000;fill-opacity:1;fill-rule:nonzero;stroke:none"
           id="text182"><tspan
             x="0 12.27096 21.761999 28.55736 35.19828"
             y="0"
             sodipodi:role="line"
             id="tspan180">MOESI</tspan></text>
</g></g><g
       id="g184"><g
         id="g186"
         clip-path="url(#clipPath190)"><text
           transform="matrix(-4.4e-8,1,1,4.4e-8,269.62,192.31)"
           style="font-variant:normal;font-weight:bold;font-size:14.03999996px;font-family:Calibri;-inkscape-font-specification:Calibri-Bold;writing-mode:lr-tb;fill:#000000;fill-opacity:1;fill-rule:nonzero;stroke:none"
           id="text194"><tspan
             x="0 12.27096 18.869761"
             y="0"
             sodipodi:role="line"
             id="tspan192">MSI</tspan></text>
</g></g><g
       id="g196"><g
         id="g198"
         clip-path="url(#clipPath202)"><text
           transform="matrix(-4.4e-8,1,1,4.4e-8,305.28,185.5)"
           style="font-variant:normal;font-weight:bold;font-size:14.03999996px;font-family:Calibri;-inkscape-font-specification:Calibri-Bold;writing-mode:lr-tb;fill:#000000;fill-opacity:1;fill-rule:nonzero;stroke:none"
           id="text206"><tspan
             x="0 12.27096 19.08036 25.721279"
             y="0"
             sodipodi:role="line"
             id="tspan204">MESI</tspan></text>
</g></g><g
       id="g208"><g
         id="g210"
         clip-path="url(#clipPath214)"><text
           transform="matrix(-4.4e-8,1,1,4.4e-8,340.94,176.02)"
           style="font-variant:normal;font-weight:bold;font-size:14.03999996px;font-family:Calibri;-inkscape-font-specification:Calibri-Bold;writing-mode:lr-tb;fill:#000000;fill-opacity:1;fill-rule:nonzero;stroke:none"
           id="text218"><tspan
             x="0 12.27096 21.761999 28.55736 35.19828"
             y="0"
             sodipodi:role="line"
             id="tspan216">MOESI</tspan></text>
</g></g><g
       id="g220"><g
         id="g222"
         clip-path="url(#clipPath226)"><text
           transform="matrix(-4.4e-8,1,1,4.4e-8,376.61,192.31)"
           style="font-variant:normal;font-weight:bold;font-size:14.03999996px;font-family:Calibri;-inkscape-font-specification:Calibri-Bold;writing-mode:lr-tb;fill:#000000;fill-opacity:1;fill-rule:nonzero;stroke:none"
           id="text230"><tspan
             x="0 12.27096 18.869761"
             y="0"
             sodipodi:role="line"
             id="tspan228">MSI</tspan></text>
</g></g><g
       id="g232"><g
         id="g234"
         clip-path="url(#clipPath238)"><text
           transform="matrix(-4.4e-8,1,1,4.4e-8,412.27,185.5)"
           style="font-variant:normal;font-weight:bold;font-size:14.03999996px;font-family:Calibri;-inkscape-font-specification:Calibri-Bold;writing-mode:lr-tb;fill:#000000;fill-opacity:1;fill-rule:nonzero;stroke:none"
           id="text242"><tspan
             x="0 12.27096 19.08036 25.721279"
             y="0"
             sodipodi:role="line"
             id="tspan240">MESI</tspan></text>
</g></g><g
       id="g244"><g
         id="g246"
         clip-path="url(#clipPath250)"><text
           transform="matrix(-4.4e-8,1,1,4.4e-8,447.94,176.02)"
           style="font-variant:normal;font-weight:bold;font-size:14.03999996px;font-family:Calibri;-inkscape-font-specification:Calibri-Bold;writing-mode:lr-tb;fill:#000000;fill-opacity:1;fill-rule:nonzero;stroke:none"
           id="text254"><tspan
             x="0 12.27096 21.761999 28.55736 35.19828"
             y="0"
             sodipodi:role="line"
             id="tspan252">MOESI</tspan></text>
</g></g><g
       id="g256"><g
         id="g258"
         clip-path="url(#clipPath262)"><text
           transform="matrix(-4.4e-8,1,1,4.4e-8,483.6,192.31)"
           style="font-variant:normal;font-weight:bold;font-size:14.06400013px;font-family:Calibri;-inkscape-font-specification:Calibri-Bold;writing-mode:lr-tb;fill:#000000;fill-opacity:1;fill-rule:nonzero;stroke:none"
           id="text266"><tspan
             x="0 12.291936 18.859823"
             y="0"
             sodipodi:role="line"
             id="tspan264">MSI</tspan></text>
</g></g><g
       id="g268"><g
         id="g270"
         clip-path="url(#clipPath274)"><text
           transform="matrix(-4.4e-8,1,1,4.4e-8,519.29,185.5)"
           style="font-variant:normal;font-weight:bold;font-size:14.03999996px;font-family:Calibri;-inkscape-font-specification:Calibri-Bold;writing-mode:lr-tb;fill:#000000;fill-opacity:1;fill-rule:nonzero;stroke:none"
           id="text278"><tspan
             x="0 12.27096 19.08036 25.721279"
             y="0"
             sodipodi:role="line"
             id="tspan276">MESI</tspan></text>
</g></g><g
       id="g280"><g
         id="g282"
         clip-path="url(#clipPath286)"><text
           transform="matrix(-4.4e-8,1,1,4.4e-8,554.95,176.02)"
           style="font-variant:normal;font-weight:bold;font-size:14.03999996px;font-family:Calibri;-inkscape-font-specification:Calibri-Bold;writing-mode:lr-tb;fill:#000000;fill-opacity:1;fill-rule:nonzero;stroke:none"
           id="text290"><tspan
             x="0 12.27096 21.761999 28.55736 35.19828"
             y="0"
             sodipodi:role="line"
             id="tspan288">MOESI</tspan></text>
</g></g><g
       id="g292"><g
         id="g294"
         clip-path="url(#clipPath298)"><text
           transform="matrix(-4.4e-8,1,1,4.4e-8,590.62,192.31)"
           style="font-variant:normal;font-weight:bold;font-size:14.03999996px;font-family:Calibri;-inkscape-font-specification:Calibri-Bold;writing-mode:lr-tb;fill:#000000;fill-opacity:1;fill-rule:nonzero;stroke:none"
           id="text302"><tspan
             x="0 12.27096 18.869761"
             y="0"
             sodipodi:role="line"
             id="tspan300">MSI</tspan></text>
</g></g><g
       id="g304"><g
         id="g306"
         clip-path="url(#clipPath310)"><text
           transform="matrix(-4.4e-8,1,1,4.4e-8,626.28,185.5)"
           style="font-variant:normal;font-weight:bold;font-size:14.03999996px;font-family:Calibri;-inkscape-font-specification:Calibri-Bold;writing-mode:lr-tb;fill:#000000;fill-opacity:1;fill-rule:nonzero;stroke:none"
           id="text314"><tspan
             x="0 12.27096 19.08036 25.721279"
             y="0"
             sodipodi:role="line"
             id="tspan312">MESI</tspan></text>
</g></g><g
       id="g316"><g
         id="g318"
         clip-path="url(#clipPath322)"><text
           transform="matrix(-4.4e-8,1,1,4.4e-8,661.94,176.02)"
           style="font-variant:normal;font-weight:bold;font-size:14.03999996px;font-family:Calibri;-inkscape-font-specification:Calibri-Bold;writing-mode:lr-tb;fill:#000000;fill-opacity:1;fill-rule:nonzero;stroke:none"
           id="text326"><tspan
             x="0 12.27096 21.761999 28.55736 35.19828"
             y="0"
             sodipodi:role="line"
             id="tspan324">MOESI</tspan></text>
</g></g><g
       id="g328"><g
         id="g330"
         clip-path="url(#clipPath334)"><text
           transform="matrix(-4.4e-8,1,1,4.4e-8,697.61,192.31)"
           style="font-variant:normal;font-weight:bold;font-size:14.03999996px;font-family:Calibri;-inkscape-font-specification:Calibri-Bold;writing-mode:lr-tb;fill:#000000;fill-opacity:1;fill-rule:nonzero;stroke:none"
           id="text338"><tspan
             x="0 12.27096 18.869761"
             y="0"
             sodipodi:role="line"
             id="tspan336">MSI</tspan></text>
</g></g><g
       id="g340"><g
         id="g342"
         clip-path="url(#clipPath346)"><text
           transform="matrix(-4.4e-8,1,1,4.4e-8,733.27,185.5)"
           style="font-variant:normal;font-weight:bold;font-size:14.03999996px;font-family:Calibri;-inkscape-font-specification:Calibri-Bold;writing-mode:lr-tb;fill:#000000;fill-opacity:1;fill-rule:nonzero;stroke:none"
           id="text350"><tspan
             x="0 12.27096 19.08036 25.721279"
             y="0"
             sodipodi:role="line"
             id="tspan348">MESI</tspan></text>
</g></g><g
       id="g352"><g
         id="g354"
         clip-path="url(#clipPath358)"><text
           transform="matrix(-4.4e-8,1,1,4.4e-8,768.94,176.02)"
           style="font-variant:normal;font-weight:bold;font-size:14.03999996px;font-family:Calibri;-inkscape-font-specification:Calibri-Bold;writing-mode:lr-tb;fill:#000000;fill-opacity:1;fill-rule:nonzero;stroke:none"
           id="text362"><tspan
             x="0 12.27096 21.761999 28.55736 35.19828"
             y="0"
             sodipodi:role="line"
             id="tspan360">MOESI</tspan></text>
</g></g><g
       id="g364"><g
         id="g366"
         clip-path="url(#clipPath370)"><text
           transform="matrix(-4.4e-8,1,1,4.4e-8,804.6,192.31)"
           style="font-variant:normal;font-weight:bold;font-size:14.03999996px;font-family:Calibri;-inkscape-font-specification:Calibri-Bold;writing-mode:lr-tb;fill:#000000;fill-opacity:1;fill-rule:nonzero;stroke:none"
           id="text374"><tspan
             x="0 12.27096 18.869761"
             y="0"
             sodipodi:role="line"
             id="tspan372">MSI</tspan></text>
</g></g><g
       id="g376"><g
         id="g378"
         clip-path="url(#clipPath382)"><text
           transform="matrix(-4.4e-8,1,1,4.4e-8,840.26,185.5)"
           style="font-variant:normal;font-weight:bold;font-size:14.06400013px;font-family:Calibri;-inkscape-font-specification:Calibri-Bold;writing-mode:lr-tb;fill:#000000;fill-opacity:1;fill-rule:nonzero;stroke:none"
           id="text386"><tspan
             x="0 12.23568 19.098911 25.680864"
             y="0"
             sodipodi:role="line"
             id="tspan384">MESI</tspan></text>
</g></g><g
       id="g388"><g
         id="g390"
         clip-path="url(#clipPath394)"><text
           transform="matrix(-4.4e-8,1,1,4.4e-8,875.95,176.02)"
           style="font-variant:normal;font-weight:bold;font-size:14.03999996px;font-family:Calibri;-inkscape-font-specification:Calibri-Bold;writing-mode:lr-tb;fill:#000000;fill-opacity:1;fill-rule:nonzero;stroke:none"
           id="text398"><tspan
             x="0 12.27096 21.761999 28.55736 35.19828"
             y="0"
             sodipodi:role="line"
             id="tspan396">MOESI</tspan></text>
</g></g><g
       id="g400"><g
         id="g402"
         clip-path="url(#clipPath406)"><text
           transform="matrix(-4.4e-8,1,1,4.4e-8,911.62,192.31)"
           style="font-variant:normal;font-weight:bold;font-size:14.03999996px;font-family:Calibri;-inkscape-font-specification:Calibri-Bold;writing-mode:lr-tb;fill:#000000;fill-opacity:1;fill-rule:nonzero;stroke:none"
           id="text410"><tspan
             x="0 12.27096 18.869761"
             y="0"
             sodipodi:role="line"
             id="tspan408">MSI</tspan></text>
</g></g><g
       id="g412"><g
         id="g414"
         clip-path="url(#clipPath418)"><text
           transform="matrix(-4.4e-8,1,1,4.4e-8,947.28,185.5)"
           style="font-variant:normal;font-weight:bold;font-size:14.03999996px;font-family:Calibri;-inkscape-font-specification:Calibri-Bold;writing-mode:lr-tb;fill:#000000;fill-opacity:1;fill-rule:nonzero;stroke:none"
           id="text422"><tspan
             x="0 12.27096 19.08036 25.721279"
             y="0"
             sodipodi:role="line"
             id="tspan420">MESI</tspan></text>
</g></g><g
       id="g424"><g
         id="g426"
         clip-path="url(#clipPath430)"><text
           transform="matrix(-4.4e-8,1,1,4.4e-8,982.94,176.02)"
           style="font-variant:normal;font-weight:bold;font-size:14.03999996px;font-family:Calibri;-inkscape-font-specification:Calibri-Bold;writing-mode:lr-tb;fill:#000000;fill-opacity:1;fill-rule:nonzero;stroke:none"
           id="text434"><tspan
             x="0 12.27096 21.761999 28.55736 35.19828"
             y="0"
             sodipodi:role="line"
             id="tspan432">MOESI</tspan></text>
</g></g><g
       id="g436"><g
         id="g438"
         clip-path="url(#clipPath442)"><text
           transform="matrix(1,0,0,-1,158.9,153.05)"
           style="font-variant:normal;font-weight:bold;font-size:14.03999996px;font-family:Calibri;-inkscape-font-specification:Calibri-Bold;writing-mode:lr-tb;fill:#000000;fill-opacity:1;fill-rule:nonzero;stroke:none"
           id="text446"><tspan
             x="0 7.90452 20.52648 27.2376 32.03928 36.953281 40.40712 47.974682 55.0368 62.155079"
             y="0"
             sodipodi:role="line"
             id="tspan444">RWStride16</tspan></text>
</g></g><g
       id="g448"><g
         id="g450"
         clip-path="url(#clipPath454)"><text
           transform="matrix(1,0,0,-1,244.78,153.05)"
           style="font-variant:normal;font-weight:bold;font-size:14.03999996px;font-family:Calibri;-inkscape-font-specification:Calibri-Bold;writing-mode:lr-tb;fill:#000000;fill-opacity:1;fill-rule:nonzero;stroke:none"
           id="text458"><tspan
             x="0 7.90452 20.52648 27.2376 32.03928 36.953281 40.40712 47.974682 55.0368 62.155079 69.217201 78.469559 85.896721 89.645401 97.184883 101.97252 106.99884"
             y="0"
             sodipodi:role="line"
             id="tspan456">RWStride16NoIntrf</tspan></text>
</g></g><g
       id="g460"><g
         id="g462"
         clip-path="url(#clipPath466)"><text
           transform="matrix(1,0,0,-1,361.54,153.05)"
           style="font-variant:normal;font-weight:bold;font-size:14.03999996px;font-family:Calibri;-inkscape-font-specification:Calibri-Bold;writing-mode:lr-tb;fill:#000000;fill-opacity:1;fill-rule:nonzero;stroke:none"
           id="text470"><tspan
             x="0 7.90452 20.52648 27.2376 32.03928 36.953281 40.40712 47.974682 55.0368 62.155079 69.933243 76.869003 84.436562"
             y="0"
             sodipodi:role="line"
             id="tspan468">RWStride8Rand</tspan></text>
</g></g><g
       id="g472"><g
         id="g474"
         clip-path="url(#clipPath478)"><text
           transform="matrix(1,0,0,-1,464.98,153.05)"
           style="font-variant:normal;font-weight:bold;font-size:14.03999996px;font-family:Calibri;-inkscape-font-specification:Calibri-Bold;writing-mode:lr-tb;fill:#000000;fill-opacity:1;fill-rule:nonzero;stroke:none"
           id="text482"><tspan
             x="0 7.90452 20.52648 27.2376 32.03928 36.953281 40.40712 47.974682 55.0368 62.155079 69.217201 77.023438 83.959198 91.526756"
             y="0"
             sodipodi:role="line"
             id="tspan480">RWStride32Rand</tspan></text>
</g></g><g
       id="g484"><g
         id="g486"
         clip-path="url(#clipPath490)"><text
           transform="matrix(1,0,0,-1,575.62,153.05)"
           style="font-variant:normal;font-weight:bold;font-size:14.03999996px;font-family:Calibri;-inkscape-font-specification:Calibri-Bold;writing-mode:lr-tb;fill:#000000;fill-opacity:1;fill-rule:nonzero;stroke:none"
           id="text494"><tspan
             x="0 7.90452 15.0228 22.084921 29.989441 36.840961 44.38044 51.835678 57.816719 64.934998 77.135757 80.5896 86.135399"
             y="0"
             sodipodi:role="line"
             id="tspan492">R75RandL1Miss</tspan></text>
</g></g><g
       id="g496"><g
         id="g498"
         clip-path="url(#clipPath502)"><text
           transform="matrix(1,0,0,-1,682.61,153.05)"
           style="font-variant:normal;font-weight:bold;font-size:14.03999996px;font-family:Calibri;-inkscape-font-specification:Calibri-Bold;writing-mode:lr-tb;fill:#000000;fill-opacity:1;fill-rule:nonzero;stroke:none"
           id="text506"><tspan
             x="0 7.90452 15.0228 22.141081 30.087721 36.953281 44.52084 51.99012 57.971161 65.089439 77.360397 80.81424 86.346001"
             y="0"
             sodipodi:role="line"
             id="tspan504">R85RandL1Miss</tspan></text>
</g></g><g
       id="g508"><g
         id="g510"
         clip-path="url(#clipPath514)"><text
           transform="matrix(1,0,0,-1,793.51,153.05)"
           style="font-variant:normal;font-weight:bold;font-size:14.03999996px;font-family:Calibri;-inkscape-font-specification:Calibri-Bold;writing-mode:lr-tb;fill:#000000;fill-opacity:1;fill-rule:nonzero;stroke:none"
           id="text518"><tspan
             x="0 7.90452 15.0228 22.084921 29.989441 36.840961 44.38044 51.835678 64.555923 69.582237 76.419724"
             y="0"
             sodipodi:role="line"
             id="tspan516">R75RandWrap</tspan></text>
</g></g><g
       id="g520"><g
         id="g522"
         clip-path="url(#clipPath526)"><text
           transform="matrix(1,0,0,-1,900.5,153.05)"
           style="font-variant:normal;font-weight:bold;font-size:14.03999996px;font-family:Calibri;-inkscape-font-specification:Calibri-Bold;writing-mode:lr-tb;fill:#000000;fill-opacity:1;fill-rule:nonzero;stroke:none"
           id="text530"><tspan
             x="0 7.90452 15.0228 22.084921 29.989441 36.840961 44.38044 51.835678 64.555923 69.582237 76.419724"
             y="0"
             sodipodi:role="line"
             id="tspan528">R40RandWrap</tspan></text>
</g></g><g
       id="g532"><g
         id="g534"
         clip-path="url(#clipPath538)"><text
           transform="matrix(-4.4e-8,1,1,4.4e-8,98.952,352.78)"
           style="font-variant:normal;font-weight:bold;font-size:14.03999996px;font-family:Calibri;-inkscape-font-specification:Calibri-Bold;writing-mode:lr-tb;fill:#000000;fill-opacity:1;fill-rule:nonzero;stroke:none"
           id="text542"><tspan
             x="0 6.9498 14.48928 22.042801 29.624399 35.22636 42.204239 49.743721 57.283199"
             y="0"
             sodipodi:role="line"
             id="tspan540">Thousands</tspan></text>
</g></g><path
       d="m 324.3,441.78 h 11.04 v 11.04 H 324.3 Z"
       style="fill:#0070c0;fill-opacity:1;fill-rule:evenodd;stroke:none"
       id="path544"
       inkscape:connector-curvature="0" /><path
       d="m 324.3,441.78 h 11.04 v 11.04 H 324.3 Z"
       style="fill:none;stroke:#0070c0;stroke-width:2.03999996;stroke-linecap:butt;stroke-linejoin:round;stroke-miterlimit:10;stroke-dasharray:none;stroke-opacity:1"
       id="path546"
       inkscape:connector-curvature="0" /><g
       id="g548"><g
         id="g550"
         clip-path="url(#clipPath554)"><text
           transform="matrix(1,0,0,-1,340.51,441.48)"
           style="font-variant:normal;font-weight:bold;font-size:20.04000092px;font-family:Calibri;-inkscape-font-specification:Calibri-Bold;writing-mode:lr-tb;fill:#000000;fill-opacity:1;fill-rule:nonzero;stroke:none"
           id="text558"><tspan
             x="0 17.514959 27.595079 43.807442 55.089958 65.170082 75.851402"
             y="0"
             sodipodi:role="line"
             id="tspan556">MemReqs</tspan></text>
</g></g><path
       d="m 523.38,441.78 h 10.92 v 11.04 h -10.92 z"
       style="fill:#000000;fill-opacity:1;fill-rule:evenodd;stroke:none"
       id="path560"
       inkscape:connector-curvature="0" /><path
       d="m 523.38,441.78 h 10.92 v 11.04 h -10.92 z"
       style="fill:none;stroke:#000000;stroke-width:2.03999996;stroke-linecap:butt;stroke-linejoin:round;stroke-miterlimit:10;stroke-dasharray:none;stroke-opacity:1"
       id="path562"
       inkscape:connector-curvature="0" /><g
       id="g564"><g
         id="g566"
         clip-path="url(#clipPath570)"><text
           transform="matrix(1,0,0,-1,539.5,441.48)"
           style="font-variant:normal;font-weight:bold;font-size:20.04000092px;font-family:Calibri;-inkscape-font-specification:Calibri-Bold;writing-mode:lr-tb;fill:#000000;fill-opacity:1;fill-rule:nonzero;stroke:none"
           id="text574"><tspan
             x="0 8.39676 18.557039 24.68928 35.971802 46.051922 56.8134"
             y="0"
             sodipodi:role="line"
             id="tspan572">L2-Reqs</tspan></text>
</g></g><path
       d="m 703.26,441.78 h 10.92 v 11.04 h -10.92 z"
       style="fill:#ff0000;fill-opacity:1;fill-rule:evenodd;stroke:none"
       id="path576"
       inkscape:connector-curvature="0" /><path
       d="m 703.26,441.78 h 10.92 v 11.04 h -10.92 z"
       style="fill:none;stroke:#ff0000;stroke-width:2.03999996;stroke-linecap:butt;stroke-linejoin:round;stroke-miterlimit:10;stroke-dasharray:none;stroke-opacity:1"
       id="path578"
       inkscape:connector-curvature="0" /><g
       id="g580"><g
         id="g582"
         clip-path="url(#clipPath586)"><text
           transform="matrix(1,0,0,-1,719.4,441.48)"
           style="font-variant:normal;font-weight:bold;font-size:20.04000092px;font-family:Calibri;-inkscape-font-specification:Calibri-Bold;writing-mode:lr-tb;fill:#000000;fill-opacity:1;fill-rule:nonzero;stroke:none"
           id="text590"><tspan
             x="0 8.39676 18.557039 24.68928 35.971802 46.051922 56.8134 61.683121"
             y="0"
             sodipodi:role="line"
             id="tspan588">L1-Replc</tspan></text>
</g></g></g></svg>