<?xml version="1.0" encoding="UTF-8" standalone="no"?>
<!-- Created with Inkscape (http://www.inkscape.org/) -->

<svg
   xmlns:dc="http://purl.org/dc/elements/1.1/"
   xmlns:cc="http://creativecommons.org/ns#"
   xmlns:rdf="http://www.w3.org/1999/02/22-rdf-syntax-ns#"
   xmlns:svg="http://www.w3.org/2000/svg"
   xmlns="http://www.w3.org/2000/svg"
   xmlns:sodipodi="http://sodipodi.sourceforge.net/DTD/sodipodi-0.dtd"
   xmlns:inkscape="http://www.inkscape.org/namespaces/inkscape"
   version="1.1"
   id="svg2"
   xml:space="preserve"
   width="1195.436"
   height="363.51605"
   viewBox="0 0 1195.436 363.51605"
   sodipodi:docname="oooswap_AvgL.svg"
   inkscape:version="0.92.4 (5da689c313, 2019-01-14)"><metadata
     id="metadata8"><rdf:RDF><cc:Work
         rdf:about=""><dc:format>image/svg+xml</dc:format><dc:type
           rdf:resource="http://purl.org/dc/dcmitype/StillImage" /><dc:title></dc:title></cc:Work></rdf:RDF></metadata><defs
     id="defs6"><clipPath
       clipPathUnits="userSpaceOnUse"
       id="clipPath18"><path
         d="M 0,1.8311e-4 H 1296 V 612.00018 H 0 Z"
         id="path16"
         inkscape:connector-curvature="0"
         style="clip-rule:evenodd" /></clipPath><clipPath
       clipPathUnits="userSpaceOnUse"
       id="clipPath34"><path
         d="m 252,224.4 h 847.68 V 401.88 H 252 Z"
         id="path32"
         inkscape:connector-curvature="0"
         style="clip-rule:evenodd" /></clipPath><clipPath
       clipPathUnits="userSpaceOnUse"
       id="clipPath46"><path
         d="m 252,224.4 h 847.68 V 401.88 H 252 Z"
         id="path44"
         inkscape:connector-curvature="0"
         style="clip-rule:evenodd" /></clipPath><clipPath
       clipPathUnits="userSpaceOnUse"
       id="clipPath62"><path
         d="m 186,159.24 h 924 V 452.88 H 186 Z"
         id="path60"
         inkscape:connector-curvature="0"
         style="clip-rule:evenodd" /></clipPath><clipPath
       clipPathUnits="userSpaceOnUse"
       id="clipPath74"><path
         d="m 186,159.24 h 924 V 452.88 H 186 Z"
         id="path72"
         inkscape:connector-curvature="0"
         style="clip-rule:evenodd" /></clipPath><clipPath
       clipPathUnits="userSpaceOnUse"
       id="clipPath86"><path
         d="m 186,159.24 h 924 V 452.88 H 186 Z"
         id="path84"
         inkscape:connector-curvature="0"
         style="clip-rule:evenodd" /></clipPath><clipPath
       clipPathUnits="userSpaceOnUse"
       id="clipPath98"><path
         d="m 186,159.24 h 924 V 452.88 H 186 Z"
         id="path96"
         inkscape:connector-curvature="0"
         style="clip-rule:evenodd" /></clipPath><clipPath
       clipPathUnits="userSpaceOnUse"
       id="clipPath110"><path
         d="m 186,159.24 h 924 V 452.88 H 186 Z"
         id="path108"
         inkscape:connector-curvature="0"
         style="clip-rule:evenodd" /></clipPath><clipPath
       clipPathUnits="userSpaceOnUse"
       id="clipPath122"><path
         d="m 186,159.24 h 924 V 452.88 H 186 Z"
         id="path120"
         inkscape:connector-curvature="0"
         style="clip-rule:evenodd" /></clipPath><clipPath
       clipPathUnits="userSpaceOnUse"
       id="clipPath134"><path
         d="m 186,159.24 h 924 V 452.88 H 186 Z"
         id="path132"
         inkscape:connector-curvature="0"
         style="clip-rule:evenodd" /></clipPath><clipPath
       clipPathUnits="userSpaceOnUse"
       id="clipPath146"><path
         d="m 186,159.24 h 924 V 452.88 H 186 Z"
         id="path144"
         inkscape:connector-curvature="0"
         style="clip-rule:evenodd" /></clipPath><clipPath
       clipPathUnits="userSpaceOnUse"
       id="clipPath158"><path
         d="m 186,159.24 h 924 V 452.88 H 186 Z"
         id="path156"
         inkscape:connector-curvature="0"
         style="clip-rule:evenodd" /></clipPath><clipPath
       clipPathUnits="userSpaceOnUse"
       id="clipPath170"><path
         d="m 186,159.24 h 924 V 452.88 H 186 Z"
         id="path168"
         inkscape:connector-curvature="0"
         style="clip-rule:evenodd" /></clipPath><clipPath
       clipPathUnits="userSpaceOnUse"
       id="clipPath182"><path
         d="m 186,159.24 h 924 V 452.88 H 186 Z"
         id="path180"
         inkscape:connector-curvature="0"
         style="clip-rule:evenodd" /></clipPath><clipPath
       clipPathUnits="userSpaceOnUse"
       id="clipPath194"><path
         d="m 186,159.24 h 924 V 452.88 H 186 Z"
         id="path192"
         inkscape:connector-curvature="0"
         style="clip-rule:evenodd" /></clipPath><clipPath
       clipPathUnits="userSpaceOnUse"
       id="clipPath206"><path
         d="m 186,159.24 h 924 V 452.88 H 186 Z"
         id="path204"
         inkscape:connector-curvature="0"
         style="clip-rule:evenodd" /></clipPath><clipPath
       clipPathUnits="userSpaceOnUse"
       id="clipPath218"><path
         d="m 186,159.24 h 924 V 452.88 H 186 Z"
         id="path216"
         inkscape:connector-curvature="0"
         style="clip-rule:evenodd" /></clipPath><clipPath
       clipPathUnits="userSpaceOnUse"
       id="clipPath230"><path
         d="m 186,159.24 h 924 V 452.88 H 186 Z"
         id="path228"
         inkscape:connector-curvature="0"
         style="clip-rule:evenodd" /></clipPath><clipPath
       clipPathUnits="userSpaceOnUse"
       id="clipPath242"><path
         d="m 186,159.24 h 924 V 452.88 H 186 Z"
         id="path240"
         inkscape:connector-curvature="0"
         style="clip-rule:evenodd" /></clipPath><clipPath
       clipPathUnits="userSpaceOnUse"
       id="clipPath254"><path
         d="m 186,159.24 h 924 V 452.88 H 186 Z"
         id="path252"
         inkscape:connector-curvature="0"
         style="clip-rule:evenodd" /></clipPath><clipPath
       clipPathUnits="userSpaceOnUse"
       id="clipPath266"><path
         d="m 186,159.24 h 924 V 452.88 H 186 Z"
         id="path264"
         inkscape:connector-curvature="0"
         style="clip-rule:evenodd" /></clipPath><clipPath
       clipPathUnits="userSpaceOnUse"
       id="clipPath278"><path
         d="m 186,159.24 h 924 V 452.88 H 186 Z"
         id="path276"
         inkscape:connector-curvature="0"
         style="clip-rule:evenodd" /></clipPath><clipPath
       clipPathUnits="userSpaceOnUse"
       id="clipPath290"><path
         d="m 186,159.24 h 924 V 452.88 H 186 Z"
         id="path288"
         inkscape:connector-curvature="0"
         style="clip-rule:evenodd" /></clipPath><clipPath
       clipPathUnits="userSpaceOnUse"
       id="clipPath302"><path
         d="m 186,159.24 h 924 V 452.88 H 186 Z"
         id="path300"
         inkscape:connector-curvature="0"
         style="clip-rule:evenodd" /></clipPath><clipPath
       clipPathUnits="userSpaceOnUse"
       id="clipPath314"><path
         d="m 186,159.24 h 924 V 452.88 H 186 Z"
         id="path312"
         inkscape:connector-curvature="0"
         style="clip-rule:evenodd" /></clipPath><clipPath
       clipPathUnits="userSpaceOnUse"
       id="clipPath326"><path
         d="m 186,159.24 h 924 V 452.88 H 186 Z"
         id="path324"
         inkscape:connector-curvature="0"
         style="clip-rule:evenodd" /></clipPath><clipPath
       clipPathUnits="userSpaceOnUse"
       id="clipPath338"><path
         d="m 186,159.24 h 924 V 452.88 H 186 Z"
         id="path336"
         inkscape:connector-curvature="0"
         style="clip-rule:evenodd" /></clipPath><clipPath
       clipPathUnits="userSpaceOnUse"
       id="clipPath350"><path
         d="m 186,159.24 h 924 V 452.88 H 186 Z"
         id="path348"
         inkscape:connector-curvature="0"
         style="clip-rule:evenodd" /></clipPath><clipPath
       clipPathUnits="userSpaceOnUse"
       id="clipPath362"><path
         d="m 186,159.24 h 924 V 452.88 H 186 Z"
         id="path360"
         inkscape:connector-curvature="0"
         style="clip-rule:evenodd" /></clipPath><clipPath
       clipPathUnits="userSpaceOnUse"
       id="clipPath374"><path
         d="m 186,159.24 h 924 V 452.88 H 186 Z"
         id="path372"
         inkscape:connector-curvature="0"
         style="clip-rule:evenodd" /></clipPath><clipPath
       clipPathUnits="userSpaceOnUse"
       id="clipPath386"><path
         d="m 186,159.24 h 924 V 452.88 H 186 Z"
         id="path384"
         inkscape:connector-curvature="0"
         style="clip-rule:evenodd" /></clipPath><clipPath
       clipPathUnits="userSpaceOnUse"
       id="clipPath398"><path
         d="m 186,159.24 h 924 V 452.88 H 186 Z"
         id="path396"
         inkscape:connector-curvature="0"
         style="clip-rule:evenodd" /></clipPath><clipPath
       clipPathUnits="userSpaceOnUse"
       id="clipPath410"><path
         d="m 186,159.24 h 924 V 452.88 H 186 Z"
         id="path408"
         inkscape:connector-curvature="0"
         style="clip-rule:evenodd" /></clipPath><clipPath
       clipPathUnits="userSpaceOnUse"
       id="clipPath422"><path
         d="m 186,159.24 h 924 V 452.88 H 186 Z"
         id="path420"
         inkscape:connector-curvature="0"
         style="clip-rule:evenodd" /></clipPath><clipPath
       clipPathUnits="userSpaceOnUse"
       id="clipPath434"><path
         d="m 186,159.24 h 924 V 452.88 H 186 Z"
         id="path432"
         inkscape:connector-curvature="0"
         style="clip-rule:evenodd" /></clipPath><clipPath
       clipPathUnits="userSpaceOnUse"
       id="clipPath446"><path
         d="m 186,159.24 h 924 V 452.88 H 186 Z"
         id="path444"
         inkscape:connector-curvature="0"
         style="clip-rule:evenodd" /></clipPath><clipPath
       clipPathUnits="userSpaceOnUse"
       id="clipPath458"><path
         d="m 186,159.24 h 924 V 452.88 H 186 Z"
         id="path456"
         inkscape:connector-curvature="0"
         style="clip-rule:evenodd" /></clipPath><clipPath
       clipPathUnits="userSpaceOnUse"
       id="clipPath470"><path
         d="m 186,159.24 h 924 V 452.88 H 186 Z"
         id="path468"
         inkscape:connector-curvature="0"
         style="clip-rule:evenodd" /></clipPath><clipPath
       clipPathUnits="userSpaceOnUse"
       id="clipPath486"><path
         d="m 186,159.24 h 924 V 452.88 H 186 Z"
         id="path484"
         inkscape:connector-curvature="0"
         style="clip-rule:evenodd" /></clipPath><clipPath
       clipPathUnits="userSpaceOnUse"
       id="clipPath502"><path
         d="m 186,159.24 h 924 V 452.88 H 186 Z"
         id="path500"
         inkscape:connector-curvature="0"
         style="clip-rule:evenodd" /></clipPath></defs><sodipodi:namedview
     pagecolor="#ffffff"
     bordercolor="#666666"
     borderopacity="1"
     objecttolerance="10"
     gridtolerance="10"
     guidetolerance="10"
     inkscape:pageopacity="0"
     inkscape:pageshadow="2"
     inkscape:window-width="1920"
     inkscape:window-height="1017"
     id="namedview4"
     showgrid="false"
     inkscape:showpageshadow="false"
     showborder="false"
     fit-margin-top="0"
     fit-margin-left="0"
     fit-margin-right="0"
     fit-margin-bottom="0"
     inkscape:zoom="0.77777778"
     inkscape:cx="597.52988"
     inkscape:cy="251.11917"
     inkscape:window-x="-8"
     inkscape:window-y="-8"
     inkscape:window-maximized="1"
     inkscape:current-layer="g10" /><g
     id="g10"
     inkscape:groupmode="layer"
     inkscape:label="oooswap_AvgL"
     transform="matrix(1.3333333,0,0,-1.3333333,-270.32392,582.39605)"><path
       d="m 252.12,244.68 h 846.84 m -846.84,19.68 h 846.84 m -846.84,19.68 h 846.84 M 252.12,303.6 h 846.84 m -846.84,19.68 h 846.84 m -846.84,19.68 h 846.84 m -846.84,19.68 h 846.84 M 252.12,382.2 h 846.84 m -846.84,19.68 h 846.84"
       style="fill:none;stroke:#bfbfbf;stroke-width:0.72000003;stroke-linecap:butt;stroke-linejoin:round;stroke-miterlimit:10;stroke-dasharray:none;stroke-opacity:1"
       id="path24"
       inkscape:connector-curvature="0" /><path
       d="m 264.66,265.38 h 11.4 v -40.32 h -11.4 z m 52.92,0 h 11.4 v -40.32 h -11.4 z m 52.92,-2.04 h 11.4 v -38.28 h -11.4 z m 52.92,11.76 h 11.4 v -50.04 h -11.4 z m 52.92,-5.88 h 11.4 v -44.16 h -11.4 z m 52.92,3.96 h 11.4 v -48.12 h -11.4 z m 52.92,16.68 h 11.4 v -64.8 h -11.4 z m 52.92,-4.92 h 11.52 V 225.06 H 635.1 Z m 52.92,-23.52 h 11.52 v -36.36 h -11.52 z m 52.92,12.72 h 11.52 v -49.08 h -11.52 z m 53.04,-6.84 h 11.4 v -42.24 h -11.4 z m 52.92,17.64 h 11.4 v -59.88 h -11.4 z m 52.92,-34.32 h 11.4 v -25.56 h -11.4 z m 52.92,5.88 h 11.4 v -31.44 h -11.4 z m 52.92,13.8 h 11.4 v -45.24 h -11.4 z m 52.92,-3 h 11.4 v -42.24 h -11.4 z"
       style="fill:#ff0000;fill-opacity:1;fill-rule:nonzero;stroke:none"
       id="path26"
       inkscape:connector-curvature="0" /><g
       id="g28"><g
         id="g30"
         clip-path="url(#clipPath34)"><path
           d="m 264.66,265.38 h 11.4 v -40.32 h -11.4 z m 52.92,0 h 11.4 v -40.32 h -11.4 z m 52.92,-2.04 h 11.4 v -38.28 h -11.4 z m 52.92,11.76 h 11.4 v -50.04 h -11.4 z m 52.92,-5.88 h 11.4 v -44.16 h -11.4 z m 52.92,3.96 h 11.4 v -48.12 h -11.4 z m 52.92,16.68 h 11.4 v -64.8 h -11.4 z m 52.92,-4.92 h 11.52 V 225.06 H 635.1 Z m 52.92,-23.52 h 11.52 v -36.36 h -11.52 z m 52.92,12.72 h 11.52 v -49.08 h -11.52 z m 53.04,-6.84 h 11.4 v -42.24 h -11.4 z m 52.92,17.64 h 11.4 v -59.88 h -11.4 z m 52.92,-34.32 h 11.4 v -25.56 h -11.4 z m 52.92,5.88 h 11.4 v -31.44 h -11.4 z m 52.92,13.8 h 11.4 v -45.24 h -11.4 z m 52.92,-3 h 11.4 v -42.24 h -11.4 z"
           style="fill:none;stroke:#ff0000;stroke-width:2.03999996;stroke-linecap:butt;stroke-linejoin:round;stroke-miterlimit:10;stroke-dasharray:none;stroke-opacity:1"
           id="path36"
           inkscape:connector-curvature="0" /></g></g><path
       d="m 281.1,296.82 h 11.4 v -71.76 h -11.4 z m 52.92,69.72 h 11.4 V 225.06 h -11.4 z m 52.92,-60 h 11.4 v -81.48 h -11.4 z m 52.92,49.2 h 11.4 V 225.06 h -11.4 z m 52.92,-49.2 h 11.4 v -81.48 h -11.4 z m 52.92,20.64 h 11.52 V 225.06 H 545.7 Z m 52.92,32.4 h 11.52 V 225.06 h -11.52 z m 52.92,32.52 h 11.52 V 225.06 h -11.52 z m 53.04,-75.72 h 11.4 v -91.32 h -11.4 z m 52.92,3.96 h 11.4 v -95.28 h -11.4 z m 52.92,-22.56 h 11.4 v -72.72 h -11.4 z m 52.92,31.44 h 11.4 V 225.06 h -11.4 z m 52.92,-26.52 h 11.4 v -77.64 h -11.4 z m 52.92,17.64 h 11.4 v -95.28 h -11.4 z m 52.92,-6.84 h 11.4 v -88.44 h -11.4 z m 52.92,4.92 h 11.52 v -93.36 h -11.52 z"
       style="fill:#000000;fill-opacity:1;fill-rule:nonzero;stroke:none"
       id="path38"
       inkscape:connector-curvature="0" /><g
       id="g40"><g
         id="g42"
         clip-path="url(#clipPath46)"><path
           d="m 281.1,296.82 h 11.4 v -71.76 h -11.4 z m 52.92,69.72 h 11.4 V 225.06 h -11.4 z m 52.92,-60 h 11.4 v -81.48 h -11.4 z m 52.92,49.2 h 11.4 V 225.06 h -11.4 z m 52.92,-49.2 h 11.4 v -81.48 h -11.4 z m 52.92,20.64 h 11.52 V 225.06 H 545.7 Z m 52.92,32.4 h 11.52 V 225.06 h -11.52 z m 52.92,32.52 h 11.52 V 225.06 h -11.52 z m 53.04,-75.72 h 11.4 v -91.32 h -11.4 z m 52.92,3.96 h 11.4 v -95.28 h -11.4 z m 52.92,-22.56 h 11.4 v -72.72 h -11.4 z m 52.92,31.44 h 11.4 V 225.06 h -11.4 z m 52.92,-26.52 h 11.4 v -77.64 h -11.4 z m 52.92,17.64 h 11.4 v -95.28 h -11.4 z m 52.92,-6.84 h 11.4 v -88.44 h -11.4 z m 52.92,4.92 h 11.52 v -93.36 h -11.52 z"
           style="fill:none;stroke:#000000;stroke-width:2.03999996;stroke-linecap:butt;stroke-linejoin:round;stroke-miterlimit:10;stroke-dasharray:none;stroke-opacity:1"
           id="path48"
           inkscape:connector-curvature="0" /></g></g><path
       d="m 252.12,225.12 h 846.84"
       style="fill:none;stroke:#d9d9d9;stroke-width:0.72000003;stroke-linecap:butt;stroke-linejoin:round;stroke-miterlimit:10;stroke-dasharray:none;stroke-opacity:1"
       id="path50"
       inkscape:connector-curvature="0" /><path
       d="m 252.12,225.12 v -30.48 m 105.84,30.48 v -30.48 m 105.84,30.48 v -30.48 m 105.84,30.48 v -30.48 m 105.96,30.48 v -30.48 m 105.84,30.48 v -30.48 m 105.84,30.48 v -30.48 m 105.84,30.48 v -30.48 m 105.84,30.48 v -30.48"
       style="fill:none;stroke:#d9d9d9;stroke-width:0.72000003;stroke-linecap:butt;stroke-linejoin:round;stroke-miterlimit:10;stroke-dasharray:none;stroke-opacity:1"
       id="path52"
       inkscape:connector-curvature="0" /><path
       d="m 252.12,194.64 v -30.48 m 105.84,30.48 v -30.48 m 105.84,30.48 v -30.48 m 105.84,30.48 v -30.48 m 105.96,30.48 v -30.48 m 105.84,30.48 v -30.48 m 105.84,30.48 v -30.48 m 105.84,30.48 v -30.48 m 105.84,30.48 v -30.48"
       style="fill:none;stroke:#d9d9d9;stroke-width:0.72000003;stroke-linecap:butt;stroke-linejoin:round;stroke-miterlimit:10;stroke-dasharray:none;stroke-opacity:1"
       id="path54"
       inkscape:connector-curvature="0" /><g
       id="g56"><g
         id="g58"
         clip-path="url(#clipPath62)"><text
           transform="matrix(1,0,0,-1,221.04,220.39)"
           style="font-variant:normal;font-weight:bold;font-size:15.96000004px;font-family:Calibri;-inkscape-font-specification:Calibri-Bold;writing-mode:lr-tb;fill:#000000;fill-opacity:1;fill-rule:nonzero;stroke:none"
           id="text66"><tspan
             x="0 8.1600199"
             y="0"
             sodipodi:role="line"
             id="tspan64">20</tspan></text>
</g></g><g
       id="g68"><g
         id="g70"
         clip-path="url(#clipPath74)"><text
           transform="matrix(1,0,0,-1,221.04,240.05)"
           style="font-variant:normal;font-weight:bold;font-size:15.96000004px;font-family:Calibri;-inkscape-font-specification:Calibri-Bold;writing-mode:lr-tb;fill:#000000;fill-opacity:1;fill-rule:nonzero;stroke:none"
           id="text78"><tspan
             x="0 8.1600199"
             y="0"
             sodipodi:role="line"
             id="tspan76">25</tspan></text>
</g></g><g
       id="g80"><g
         id="g82"
         clip-path="url(#clipPath86)"><text
           transform="matrix(1,0,0,-1,221.04,259.7)"
           style="font-variant:normal;font-weight:bold;font-size:15.98400021px;font-family:Calibri;-inkscape-font-specification:Calibri-Bold;writing-mode:lr-tb;fill:#000000;fill-opacity:1;fill-rule:nonzero;stroke:none"
           id="text90"><tspan
             x="0 8.1599884"
             y="0"
             sodipodi:role="line"
             id="tspan88">30</tspan></text>
</g></g><g
       id="g92"><g
         id="g94"
         clip-path="url(#clipPath98)"><text
           transform="matrix(1,0,0,-1,221.04,279.34)"
           style="font-variant:normal;font-weight:bold;font-size:15.96000004px;font-family:Calibri;-inkscape-font-specification:Calibri-Bold;writing-mode:lr-tb;fill:#000000;fill-opacity:1;fill-rule:nonzero;stroke:none"
           id="text102"><tspan
             x="0 8.1600199"
             y="0"
             sodipodi:role="line"
             id="tspan100">35</tspan></text>
</g></g><g
       id="g104"><g
         id="g106"
         clip-path="url(#clipPath110)"><text
           transform="matrix(1,0,0,-1,221.04,298.99)"
           style="font-variant:normal;font-weight:bold;font-size:15.96000004px;font-family:Calibri;-inkscape-font-specification:Calibri-Bold;writing-mode:lr-tb;fill:#000000;fill-opacity:1;fill-rule:nonzero;stroke:none"
           id="text114"><tspan
             x="0 8.1600199"
             y="0"
             sodipodi:role="line"
             id="tspan112">40</tspan></text>
</g></g><g
       id="g116"><g
         id="g118"
         clip-path="url(#clipPath122)"><text
           transform="matrix(1,0,0,-1,221.04,318.65)"
           style="font-variant:normal;font-weight:bold;font-size:15.96000004px;font-family:Calibri;-inkscape-font-specification:Calibri-Bold;writing-mode:lr-tb;fill:#000000;fill-opacity:1;fill-rule:nonzero;stroke:none"
           id="text126"><tspan
             x="0 8.1600199"
             y="0"
             sodipodi:role="line"
             id="tspan124">45</tspan></text>
</g></g><g
       id="g128"><g
         id="g130"
         clip-path="url(#clipPath134)"><text
           transform="matrix(1,0,0,-1,221.04,338.3)"
           style="font-variant:normal;font-weight:bold;font-size:15.98400021px;font-family:Calibri;-inkscape-font-specification:Calibri-Bold;writing-mode:lr-tb;fill:#000000;fill-opacity:1;fill-rule:nonzero;stroke:none"
           id="text138"><tspan
             x="0 8.1599884"
             y="0"
             sodipodi:role="line"
             id="tspan136">50</tspan></text>
</g></g><g
       id="g140"><g
         id="g142"
         clip-path="url(#clipPath146)"><text
           transform="matrix(1,0,0,-1,221.04,357.94)"
           style="font-variant:normal;font-weight:bold;font-size:15.96000004px;font-family:Calibri;-inkscape-font-specification:Calibri-Bold;writing-mode:lr-tb;fill:#000000;fill-opacity:1;fill-rule:nonzero;stroke:none"
           id="text150"><tspan
             x="0 8.1600199"
             y="0"
             sodipodi:role="line"
             id="tspan148">55</tspan></text>
</g></g><g
       id="g152"><g
         id="g154"
         clip-path="url(#clipPath158)"><text
           transform="matrix(1,0,0,-1,221.04,377.59)"
           style="font-variant:normal;font-weight:bold;font-size:15.96000004px;font-family:Calibri;-inkscape-font-specification:Calibri-Bold;writing-mode:lr-tb;fill:#000000;fill-opacity:1;fill-rule:nonzero;stroke:none"
           id="text162"><tspan
             x="0 8.1600199"
             y="0"
             sodipodi:role="line"
             id="tspan160">60</tspan></text>
</g></g><g
       id="g164"><g
         id="g166"
         clip-path="url(#clipPath170)"><text
           transform="matrix(1,0,0,-1,221.04,397.25)"
           style="font-variant:normal;font-weight:bold;font-size:15.96000004px;font-family:Calibri;-inkscape-font-specification:Calibri-Bold;writing-mode:lr-tb;fill:#000000;fill-opacity:1;fill-rule:nonzero;stroke:none"
           id="text174"><tspan
             x="0 8.1600199"
             y="0"
             sodipodi:role="line"
             id="tspan172">65</tspan></text>
</g></g><g
       id="g176"><g
         id="g178"
         clip-path="url(#clipPath182)"><text
           transform="matrix(1,0,0,-1,263.23,199.58)"
           style="font-variant:normal;font-weight:bold;font-size:15.96000004px;font-family:Calibri;-inkscape-font-specification:Calibri-Bold;writing-mode:lr-tb;fill:#000000;fill-opacity:1;fill-rule:nonzero;stroke:none"
           id="text186"><tspan
             x="0 7.3256402 15.81636 23.142"
             y="0"
             sodipodi:role="line"
             id="tspan184">FCFS</tspan></text>
</g></g><g
       id="g188"><g
         id="g190"
         clip-path="url(#clipPath194)"><text
           transform="matrix(1,0,0,-1,307.75,199.58)"
           style="font-variant:normal;font-weight:bold;font-size:15.96000004px;font-family:Calibri;-inkscape-font-specification:Calibri-Bold;writing-mode:lr-tb;fill:#000000;fill-opacity:1;fill-rule:nonzero;stroke:none"
           id="text198"><tspan
             x="0 8.4907198 12.83184 20.38092 28.823759 39.61272"
             y="0"
             sodipodi:role="line"
             id="tspan196">PISCOT</tspan></text>
</g></g><g
       id="g200"><g
         id="g202"
         clip-path="url(#clipPath206)"><text
           transform="matrix(1,0,0,-1,369.1,199.58)"
           style="font-variant:normal;font-weight:bold;font-size:15.96000004px;font-family:Calibri;-inkscape-font-specification:Calibri-Bold;writing-mode:lr-tb;fill:#000000;fill-opacity:1;fill-rule:nonzero;stroke:none"
           id="text210"><tspan
             x="0 7.3256402 15.81636 23.142"
             y="0"
             sodipodi:role="line"
             id="tspan208">FCFS</tspan></text>
</g></g><g
       id="g212"><g
         id="g214"
         clip-path="url(#clipPath218)"><text
           transform="matrix(1,0,0,-1,413.62,199.58)"
           style="font-variant:normal;font-weight:bold;font-size:15.96000004px;font-family:Calibri;-inkscape-font-specification:Calibri-Bold;writing-mode:lr-tb;fill:#000000;fill-opacity:1;fill-rule:nonzero;stroke:none"
           id="text222"><tspan
             x="0 8.4907198 12.83184 20.38092 28.823759 39.61272"
             y="0"
             sodipodi:role="line"
             id="tspan220">PISCOT</tspan></text>
</g></g><g
       id="g224"><g
         id="g226"
         clip-path="url(#clipPath230)"><text
           transform="matrix(1,0,0,-1,474.96,199.58)"
           style="font-variant:normal;font-weight:bold;font-size:15.96000004px;font-family:Calibri;-inkscape-font-specification:Calibri-Bold;writing-mode:lr-tb;fill:#000000;fill-opacity:1;fill-rule:nonzero;stroke:none"
           id="text234"><tspan
             x="0 7.3256402 15.81636 23.142"
             y="0"
             sodipodi:role="line"
             id="tspan232">FCFS</tspan></text>
</g></g><g
       id="g236"><g
         id="g238"
         clip-path="url(#clipPath242)"><text
           transform="matrix(1,0,0,-1,519.48,199.58)"
           style="font-variant:normal;font-weight:bold;font-size:15.96000004px;font-family:Calibri;-inkscape-font-specification:Calibri-Bold;writing-mode:lr-tb;fill:#000000;fill-opacity:1;fill-rule:nonzero;stroke:none"
           id="text246"><tspan
             x="0 8.4907198 12.83184 20.38092 28.823759 39.61272"
             y="0"
             sodipodi:role="line"
             id="tspan244">PISCOT</tspan></text>
</g></g><g
       id="g248"><g
         id="g250"
         clip-path="url(#clipPath254)"><text
           transform="matrix(1,0,0,-1,580.85,199.58)"
           style="font-variant:normal;font-weight:bold;font-size:15.96000004px;font-family:Calibri;-inkscape-font-specification:Calibri-Bold;writing-mode:lr-tb;fill:#000000;fill-opacity:1;fill-rule:nonzero;stroke:none"
           id="text258"><tspan
             x="0 7.3256402 15.81636 23.142"
             y="0"
             sodipodi:role="line"
             id="tspan256">FCFS</tspan></text>
</g></g><g
       id="g260"><g
         id="g262"
         clip-path="url(#clipPath266)"><text
           transform="matrix(1,0,0,-1,625.37,199.58)"
           style="font-variant:normal;font-weight:bold;font-size:15.96000004px;font-family:Calibri;-inkscape-font-specification:Calibri-Bold;writing-mode:lr-tb;fill:#000000;fill-opacity:1;fill-rule:nonzero;stroke:none"
           id="text270"><tspan
             x="0 8.4907198 12.83184 20.38092 28.823759 39.61272"
             y="0"
             sodipodi:role="line"
             id="tspan268">PISCOT</tspan></text>
</g></g><g
       id="g272"><g
         id="g274"
         clip-path="url(#clipPath278)"><text
           transform="matrix(1,0,0,-1,686.71,199.58)"
           style="font-variant:normal;font-weight:bold;font-size:15.96000004px;font-family:Calibri;-inkscape-font-specification:Calibri-Bold;writing-mode:lr-tb;fill:#000000;fill-opacity:1;fill-rule:nonzero;stroke:none"
           id="text282"><tspan
             x="0 7.3256402 15.81636 23.142"
             y="0"
             sodipodi:role="line"
             id="tspan280">FCFS</tspan></text>
</g></g><g
       id="g284"><g
         id="g286"
         clip-path="url(#clipPath290)"><text
           transform="matrix(1,0,0,-1,731.23,199.58)"
           style="font-variant:normal;font-weight:bold;font-size:15.96000004px;font-family:Calibri;-inkscape-font-specification:Calibri-Bold;writing-mode:lr-tb;fill:#000000;fill-opacity:1;fill-rule:nonzero;stroke:none"
           id="text294"><tspan
             x="0 8.4907198 12.83184 20.38092 28.823759 39.61272"
             y="0"
             sodipodi:role="line"
             id="tspan292">PISCOT</tspan></text>
</g></g><g
       id="g296"><g
         id="g298"
         clip-path="url(#clipPath302)"><text
           transform="matrix(1,0,0,-1,792.58,199.58)"
           style="font-variant:normal;font-weight:bold;font-size:15.96000004px;font-family:Calibri;-inkscape-font-specification:Calibri-Bold;writing-mode:lr-tb;fill:#000000;fill-opacity:1;fill-rule:nonzero;stroke:none"
           id="text306"><tspan
             x="0 7.3256402 15.84828 23.17392"
             y="0"
             sodipodi:role="line"
             id="tspan304">FCFS</tspan></text>
</g></g><g
       id="g308"><g
         id="g310"
         clip-path="url(#clipPath314)"><text
           transform="matrix(1,0,0,-1,837.1,199.58)"
           style="font-variant:normal;font-weight:bold;font-size:15.96000004px;font-family:Calibri;-inkscape-font-specification:Calibri-Bold;writing-mode:lr-tb;fill:#000000;fill-opacity:1;fill-rule:nonzero;stroke:none"
           id="text318"><tspan
             x="0 8.5226402 12.83184 20.38092 28.823759 39.61272"
             y="0"
             sodipodi:role="line"
             id="tspan316">PISCOT</tspan></text>
</g></g><g
       id="g320"><g
         id="g322"
         clip-path="url(#clipPath326)"><text
           transform="matrix(1,0,0,-1,898.46,199.58)"
           style="font-variant:normal;font-weight:bold;font-size:15.96000004px;font-family:Calibri;-inkscape-font-specification:Calibri-Bold;writing-mode:lr-tb;fill:#000000;fill-opacity:1;fill-rule:nonzero;stroke:none"
           id="text330"><tspan
             x="0 7.3256402 15.81636 23.142"
             y="0"
             sodipodi:role="line"
             id="tspan328">FCFS</tspan></text>
</g></g><g
       id="g332"><g
         id="g334"
         clip-path="url(#clipPath338)"><text
           transform="matrix(1,0,0,-1,942.98,199.58)"
           style="font-variant:normal;font-weight:bold;font-size:15.96000004px;font-family:Calibri;-inkscape-font-specification:Calibri-Bold;writing-mode:lr-tb;fill:#000000;fill-opacity:1;fill-rule:nonzero;stroke:none"
           id="text342"><tspan
             x="0 8.4907198 12.83184 20.38092 28.823759 39.61272"
             y="0"
             sodipodi:role="line"
             id="tspan340">PISCOT</tspan></text>
</g></g><g
       id="g344"><g
         id="g346"
         clip-path="url(#clipPath350)"><text
           transform="matrix(1,0,0,-1,1004.33,199.58)"
           style="font-variant:normal;font-weight:bold;font-size:15.96000004px;font-family:Calibri;-inkscape-font-specification:Calibri-Bold;writing-mode:lr-tb;fill:#000000;fill-opacity:1;fill-rule:nonzero;stroke:none"
           id="text354"><tspan
             x="0 7.3256402 15.81636 23.142"
             y="0"
             sodipodi:role="line"
             id="tspan352">FCFS</tspan></text>
</g></g><g
       id="g356"><g
         id="g358"
         clip-path="url(#clipPath362)"><text
           transform="matrix(1,0,0,-1,1048.85,199.58)"
           style="font-variant:normal;font-weight:bold;font-size:15.96000004px;font-family:Calibri;-inkscape-font-specification:Calibri-Bold;writing-mode:lr-tb;fill:#000000;fill-opacity:1;fill-rule:nonzero;stroke:none"
           id="text366"><tspan
             x="0 8.4907198 12.83184 20.38092 28.823759 39.61272"
             y="0"
             sodipodi:role="line"
             id="tspan364">PISCOT</tspan></text>
</g></g><g
       id="g368"><g
         id="g370"
         clip-path="url(#clipPath374)"><text
           transform="matrix(1,0,0,-1,254.28,169.15)"
           style="font-variant:normal;font-weight:bold;font-size:15.98400021px;font-family:Calibri;-inkscape-font-specification:Calibri-Bold;writing-mode:lr-tb;fill:#000000;fill-opacity:1;fill-rule:nonzero;stroke:none"
           id="text378"><tspan
             x="0 7.8960962 15.999984 21.5784 25.41456 38.473488 46.513439 54.665279 62.705231 67.596336 73.142784 78.897026 86.697212 93.378525"
             y="0"
             sodipodi:role="line"
             id="tspan376">a2time01-trace</tspan></text>
</g></g><g
       id="g380"><g
         id="g382"
         clip-path="url(#clipPath386)"><text
           transform="matrix(1,0,0,-1,367.63,169.15)"
           style="font-variant:normal;font-weight:bold;font-size:15.98400021px;font-family:Calibri;-inkscape-font-specification:Calibri-Bold;writing-mode:lr-tb;fill:#000000;fill-opacity:1;fill-rule:nonzero;stroke:none"
           id="text390"><tspan
             x="0 7.8960962 11.860128 16.911072 20.843136 26.517456 31.568399 39.672287 47.776176 52.667278 58.21373 63.920017 71.816109 78.433487"
             y="0"
             sodipodi:role="line"
             id="tspan388">aifirf01-trace</tspan></text>
</g></g><g
       id="g392"><g
         id="g394"
         clip-path="url(#clipPath398)"><text
           transform="matrix(1,0,0,-1,467.02,169.15)"
           style="font-variant:normal;font-weight:bold;font-size:15.98400021px;font-family:Calibri;-inkscape-font-specification:Calibri-Bold;writing-mode:lr-tb;fill:#000000;fill-opacity:1;fill-rule:nonzero;stroke:none"
           id="text402"><tspan
             x="0 8.6313601 16.431553 22.889088 30.929041 35.979984 44.483471 52.635311 60.787151 65.582352 71.208717 76.883041 84.779137 91.460449"
             y="0"
             sodipodi:role="line"
             id="tspan400">basefp01-trace</tspan></text>
</g></g><g
       id="g404"><g
         id="g406"
         clip-path="url(#clipPath410)"><text
           transform="matrix(1,0,0,-1,581.88,169.15)"
           style="font-variant:normal;font-weight:bold;font-size:15.98400021px;font-family:Calibri;-inkscape-font-specification:Calibri-Bold;writing-mode:lr-tb;fill:#000000;fill-opacity:1;fill-rule:nonzero;stroke:none"
           id="text414"><tspan
             x="0 8.0399523 21.098881 29.618353 35.164799 42.805153 47.600353 53.226719 58.901039 66.797134 73.478447"
             y="0"
             sodipodi:role="line"
             id="tspan412">empty-trace</tspan></text>
</g></g><g
       id="g416"><g
         id="g418"
         clip-path="url(#clipPath422)"><text
           transform="matrix(1,0,0,-1,687,169.15)"
           style="font-variant:normal;font-weight:bold;font-size:15.98400021px;font-family:Calibri;-inkscape-font-specification:Calibri-Bold;writing-mode:lr-tb;fill:#000000;fill-opacity:1;fill-rule:nonzero;stroke:none"
           id="text426"><tspan
             x="0 3.9320641 7.8960962 13.570416 18.621361 22.553425 28.099873 36.203758 44.259697 49.150799 54.697247 60.451488 68.347588 74.964958"
             y="0"
             sodipodi:role="line"
             id="tspan424">iirflt01-trace</tspan></text>
</g></g><g
       id="g428"><g
         id="g430"
         clip-path="url(#clipPath434)"><text
           transform="matrix(1,0,0,-1,785.06,169.15)"
           style="font-variant:normal;font-weight:bold;font-size:15.98400021px;font-family:Calibri;-inkscape-font-specification:Calibri-Bold;writing-mode:lr-tb;fill:#000000;fill-opacity:1;fill-rule:nonzero;stroke:none"
           id="text438"><tspan
             x="0 8.6313601 17.150831 22.697281 28.419552 35.100864 43.684273 51.788158 59.892048 64.78315 70.329597 76.035889 83.931984 90.549362"
             y="0"
             sodipodi:role="line"
             id="tspan436">pntrch01-trace</tspan></text>
</g></g><g
       id="g440"><g
         id="g442"
         clip-path="url(#clipPath446)"><text
           transform="matrix(1,0,0,-1,890.11,169.15)"
           style="font-variant:normal;font-weight:bold;font-size:15.98400021px;font-family:Calibri;-inkscape-font-specification:Calibri-Bold;writing-mode:lr-tb;fill:#000000;fill-opacity:1;fill-rule:nonzero;stroke:none"
           id="text450"><tspan
             x="0 5.6743202 12.099888 20.61936 28.659311 36.699265 45.330624 53.482464 61.522415 66.413521 71.959969 77.714211 85.514397 92.195709"
             y="0"
             sodipodi:role="line"
             id="tspan448">rspeed01-trace</tspan></text>
</g></g><g
       id="g452"><g
         id="g454"
         clip-path="url(#clipPath458)"><text
           transform="matrix(1,0,0,-1,998.95,169.15)"
           style="font-variant:normal;font-weight:bold;font-size:15.98400021px;font-family:Calibri;-inkscape-font-specification:Calibri-Bold;writing-mode:lr-tb;fill:#000000;fill-opacity:1;fill-rule:nonzero;stroke:none"
           id="text462"><tspan
             x="0 5.5464482 11.044944 17.50248 26.021952 31.760208 39.432529 47.472481 55.624321 60.515423 66.061874 71.736191 79.632286 86.313599"
             y="0"
             sodipodi:role="line"
             id="tspan460">ttsprk01-trace</tspan></text>
</g></g><g
       id="g464"><g
         id="g466"
         clip-path="url(#clipPath470)"><text
           transform="matrix(-4.4e-8,1,1,4.4e-8,213.77,279.72)"
           style="font-variant:normal;font-weight:bold;font-size:15.96000004px;font-family:Calibri;-inkscape-font-specification:Calibri-Bold;writing-mode:lr-tb;fill:#000000;fill-opacity:1;fill-rule:nonzero;stroke:none"
           id="text474"><tspan
             x="0 9.35256 16.789921 24.354959 31.106039 34.713001 39.836159 48.278999 55.556759 62.25996"
             y="0"
             sodipodi:role="line"
             id="tspan472">AvgL [Cyc]</tspan></text>
</g></g><path
       d="m 286.02,424.26 h 10.92 v 10.92 h -10.92 z"
       style="fill:#ff0000;fill-opacity:1;fill-rule:evenodd;stroke:none"
       id="path476"
       inkscape:connector-curvature="0" /><path
       d="m 286.02,424.26 h 10.92 v 10.92 h -10.92 z"
       style="fill:none;stroke:#ff0000;stroke-width:2.03999996;stroke-linecap:butt;stroke-linejoin:round;stroke-miterlimit:10;stroke-dasharray:none;stroke-opacity:1"
       id="path478"
       inkscape:connector-curvature="0" /><g
       id="g480"><g
         id="g482"
         clip-path="url(#clipPath486)"><text
           transform="matrix(1,0,0,-1,302.14,423.91)"
           style="font-variant:normal;font-weight:bold;font-size:20.04000092px;font-family:Calibri;-inkscape-font-specification:Calibri-Bold;writing-mode:lr-tb;fill:#000000;fill-opacity:1;fill-rule:nonzero;stroke:none"
           id="text490"><tspan
             x="0 10.60116 20.76144"
             y="0"
             sodipodi:role="line"
             id="tspan488">C2C</tspan></text>
</g></g><path
       d="m 366.3,424.26 h 10.92 v 10.92 H 366.3 Z"
       style="fill:#000000;fill-opacity:1;fill-rule:evenodd;stroke:none"
       id="path492"
       inkscape:connector-curvature="0" /><path
       d="m 366.3,424.26 h 10.92 v 10.92 H 366.3 Z"
       style="fill:none;stroke:#000000;stroke-width:2.03999996;stroke-linecap:butt;stroke-linejoin:round;stroke-miterlimit:10;stroke-dasharray:none;stroke-opacity:1"
       id="path494"
       inkscape:connector-curvature="0" /><g
       id="g496"><g
         id="g498"
         clip-path="url(#clipPath502)"><text
           transform="matrix(1,0,0,-1,382.42,423.91)"
           style="font-variant:normal;font-weight:bold;font-size:20.04000092px;font-family:Calibri;-inkscape-font-specification:Calibri-Bold;writing-mode:lr-tb;fill:#000000;fill-opacity:1;fill-rule:nonzero;stroke:none"
           id="text506"><tspan
             x="0 13.20636 23.88768 28.416719 39.017879 49.178162"
             y="0"
             sodipodi:role="line"
             id="tspan504">No C2C</tspan></text>
</g></g></g></svg>